{"accessors":[{"bufferView":0,"componentType":5126,"count":2210,"max":[0.499433666467667,0.5,0.499433666467667],"min":[-0.499433666467667,-0.5,-0.499433666467667],"normalized":false,"type":"VEC3"},{"bufferView":1,"componentType":5126,"count":2210,"max":[1.0,0.0,1.0,1.0],"min":[-1.0,-0.0000215795153053477,-1.0,1.0],"normalized":false,"type":"VEC4"},{"bufferView":2,"componentType":5126,"count":2210,"max":[0.998868048191071,1.0,0.998868048191071],"min":[-0.998868823051453,-1.0,-0.998867213726044],"normalized":false,"type":"VEC3"},{"bufferView":3,"componentType":5126,"count":2210,"max":[1.0,1.0],"min":[0.0,0.0],"normalized":false,"type":"VEC2"},{"bufferView":4,"componentType":5123,"count":12672,"max":[2209.0],"min":[0.0],"normalized":false,"type":"SCALAR"},{"bufferView":5,"componentType":5126,"count":2210,"max":[0.499433666467667,0.5,0.499433666467667],"min":[-0.499433666467667,-0.5,-0.499433666467667],"normalized":false,"type":"VEC3"},{"bufferView":6,"componentType":5126,"count":2210,"max":[1.0,0.0,1.0,1.0],"min":[-1.0,-0.0000215795153053477,-1.0,1.0],"normalized":false,"type":"VEC4"},{"bufferView":7,"componentType":5126,"count":2210,"max":[0.998868048191071,1.0,0.998868048191071],"min":[-0.998868823051453,-1.0,-0.998867213726044],"normalized":false,"type":"VEC3"},{"bufferView":8,"componentType":5126,"count":2210,"max":[1.0,1.0],"min":[0.0,0.0],"normalized":false,"type":"VEC2"},{"bufferView":9,"componentType":5123,"count":12672,"max":[2209.0],"min":[0.0],"normalized":false,"type":"SCALAR"},{"bufferView":10,"componentType":5126,"count":2210,"max":[0.499433666467667,0.5,0.499433666467667],"min":[-0.499433666467667,-0.5,-0.499433666467667],"normalized":false,"type":"VEC3"},{"bufferView":11,"componentType":5126,"count":2210,"max":[1.0,0.0,1.0,1.0],"min":[-1.0,-0.0000215795153053477,-1.0,1.0],"normalized":false,"type":"VEC4"},{"bufferView":12,"componentType":5126,"count":2210,"max":[0.998868048191071,1.0,0.998868048191071],"min":[-0.998868823051453,-1.0,-0.998867213726044],"normalized":false,"type":"VEC3"},{"bufferView":13,"componentType":5126,"count":2210,"max":[1.0,1.0],"min":[0.0,0.0],"normalized":false,"type":"VEC2"},{"bufferView":14,"componentType":5123,"count":12672,"max":[2209.0],"min":[0.0],"normalized":false,"type":"SCALAR"},{"bufferView":15,"componentType":5126,"count":2210,"max":[0.499433666467667,0.5,0.499433666467667],"min":[-0.499433666467667,-0.5,-0.499433666467667],"normalized":false,"type":"VEC3"},{"bufferView":16,"componentType":5126,"count":2210,"max":[1.0,0.0,1.0,1.0],"min":[-1.0,-0.0000215795153053477,-1.0,1.0],"normalized":false,"type":"VEC4"},{"bufferView":17,"componentType":5126,"count":2210,"max":[0.998868048191071,1.0,0.998868048191071],"min":[-0.998868823051453,-1.0,-0.998867213726044],"normalized":false,"type":"VEC3"},{"bufferView":18,"componentType":5126,"count":2210,"max":[1.0,1.0],"min":[0.0,0.0],"normalized":false,"type":"VEC2"},{"bufferView":19,"componentType":5123,"count":12672,"max":[2209.0],"min":[0.0],"normalized":false,"type":"SCALAR"},{"bufferView":20,"componentType":5126,"count":2210,"max":[0.499433666467667,0.5,0.499433666467667],"min":[-0.499433666467667,-0.5,-0.499433666467667],"normalized":false,"type":"VEC3"},{"bufferView":21,"componentType":5126,"count":2210,"max":[1.0,0.0,1.0,1.0],"min":[-1.0,-0.0000215795153053477,-1.0,1.0],"normalized":false,"type":"VEC4"},{"bufferView":22,"componentType":5126,"count":2210,"max":[0.998868048191071,1.0,0.998868048191071],"min":[-0.998868823051453,-1.0,-0.998867213726044],"normalized":false,"type":"VEC3"},{"bufferView":23,"componentType":5126,"count":2210,"max":[1.0,1.0],"min":[0.0,0.0],"normalized":false,"type":"VEC2"},{"bufferView":24,"componentType":5123,"count":12672,"max":[2209.0],"min":[0.0],"normalized":false,"type":"SCALAR"},{"bufferView":25,"componentType":5126,"count":2210,"max":[0.499433666467667,0.5,0.499433666467667],"min":[-0.499433666467667,-0.5,-0.499433666467667],"normalized":false,"type":"VEC3"},{"bufferView":26,"componentType":5126,"count":2210,"max":[1.0,0.0,1.0,1.0],"min":[-1.0,-0.0000215795153053477,-1.0,1.0],"normalized":false,"type":"VEC4"},{"bufferView":27,"componentType":5126,"count":2210,"max":[0.998868048191071,1.0,0.998868048191071],"min":[-0.998868823051453,-1.0,-0.998867213726044],"normalized":false,"type":"VEC3"},{"bufferView":28,"componentType":5126,"count":2210,"max":[1.0,1.0],"min":[0.0,0.0],"normalized":false,"type":"VEC2"},{"bufferView":29,"componentType":5123,"count":12672,"max":[2209.0],"min":[0.0],"normalized":false,"type":"SCALAR"},{"bufferView":30,"componentType":5126,"count":2210,"max":[0.499433666467667,0.5,0.499433666467667],"min":[-0.499433666467667,-0.5,-0.499433666467667],"normalized":false,"type":"VEC3"},{"bufferView":31,"componentType":5126,"count":2210,"max":[1.0,0.0,1.0,1.0],"min":[-1.0,-0.0000215795153053477,-1.0,1.0],"normalized":false,"type":"VEC4"},{"bufferView":32,"componentType":5126,"count":2210,"max":[0.998868048191071,1.0,0.998868048191071],"min":[-0.998868823051453,-1.0,-0.998867213726044],"normalized":false,"type":"VEC3"},{"bufferView":33,"componentType":5126,"count":2210,"max":[1.0,1.0],"min":[0.0,0.0],"normalized":false,"type":"VEC2"},{"bufferView":34,"componentType":5123,"count":12672,"max":[2209.0],"min":[0.0],"normalized":false,"type":"SCALAR"},{"bufferView":35,"componentType":5126,"count":2210,"max":[0.499433666467667,0.5,0.499433666467667],"min":[-0.499433666467667,-0.5,-0.499433666467667],"normalized":false,"type":"VEC3"},{"bufferView":36,"componentType":5126,"count":2210,"max":[1.0,0.0,1.0,1.0],"min":[-1.0,-0.0000215795153053477,-1.0,1.0],"normalized":false,"type":"VEC4"},{"bufferView":37,"componentType":5126,"count":2210,"max":[0.998868048191071,1.0,0.998868048191071],"min":[-0.998868823051453,-1.0,-0.998867213726044],"normalized":false,"type":"VEC3"},{"bufferView":38,"componentType":5126,"count":2210,"max":[1.0,1.0],"min":[0.0,0.0],"normalized":false,"type":"VEC2"},{"bufferView":39,"componentType":5123,"count":12672,"max":[2209.0],"min":[0.0],"normalized":false,"type":"SCALAR"},{"bufferView":40,"componentType":5126,"count":2210,"max":[0.499433666467667,0.5,0.499433666467667],"min":[-0.499433666467667,-0.5,-0.499433666467667],"normalized":false,"type":"VEC3"},{"bufferView":41,"componentType":5126,"count":2210,"max":[1.0,0.0,1.0,1.0],"min":[-1.0,-0.0000215795153053477,-1.0,1.0],"normalized":false,"type":"VEC4"},{"bufferView":42,"componentType":5126,"count":2210,"max":[0.998868048191071,1.0,0.998868048191071],"min":[-0.998868823051453,-1.0,-0.998867213726044],"normalized":false,"type":"VEC3"},{"bufferView":43,"componentType":5126,"count":2210,"max":[1.0,1.0],"min":[0.0,0.0],"normalized":false,"type":"VEC2"},{"bufferView":44,"componentType":5123,"count":12672,"max":[2209.0],"min":[0.0],"normalized":false,"type":"SCALAR"},{"bufferView":45,"componentType":5126,"count":2210,"max":[0.499433666467667,0.5,0.499433666467667],"min":[-0.499433666467667,-0.5,-0.499433666467667],"normalized":false,"type":"VEC3"},{"bufferView":46,"componentType":5126,"count":2210,"max":[1.0,0.0,1.0,1.0],"min":[-1.0,-0.0000215795153053477,-1.0,1.0],"normalized":false,"type":"VEC4"},{"bufferView":47,"componentType":5126,"count":2210,"max":[0.998868048191071,1.0,0.998868048191071],"min":[-0.998868823051453,-1.0,-0.998867213726044],"normalized":false,"type":"VEC3"},{"bufferView":48,"componentType":5126,"count":2210,"max":[1.0,1.0],"min":[0.0,0.0],"normalized":false,"type":"VEC2"},{"bufferView":49,"componentType":5123,"count":12672,"max":[2209.0],"min":[0.0],"normalized":false,"type":"SCALAR"},{"bufferView":50,"componentType":5126,"count":2210,"max":[0.499433666467667,0.5,0.499433666467667],"min":[-0.499433666467667,-0.5,-0.499433666467667],"normalized":false,"type":"VEC3"},{"bufferView":51,"componentType":5126,"count":2210,"max":[1.0,0.0,1.0,1.0],"min":[-1.0,-0.0000215795153053477,-1.0,1.0],"normalized":false,"type":"VEC4"},{"bufferView":52,"componentType":5126,"count":2210,"max":[0.998868048191071,1.0,0.998868048191071],"min":[-0.998868823051453,-1.0,-0.998867213726044],"normalized":false,"type":"VEC3"},{"bufferView":53,"componentType":5126,"count":2210,"max":[1.0,1.0],"min":[0.0,0.0],"normalized":false,"type":"VEC2"},{"bufferView":54,"componentType":5123,"count":12672,"max":[2209.0],"min":[0.0],"normalized":false,"type":"SCALAR"},{"bufferView":55,"componentType":5126,"count":2210,"max":[0.499433666467667,0.5,0.499433666467667],"min":[-0.499433666467667,-0.5,-0.499433666467667],"normalized":false,"type":"VEC3"},{"bufferView":56,"componentType":5126,"count":2210,"max":[1.0,0.0,1.0,1.0],"min":[-1.0,-0.0000215795153053477,-1.0,1.0],"normalized":false,"type":"VEC4"},{"bufferView":57,"componentType":5126,"count":2210,"max":[0.998868048191071,1.0,0.998868048191071],"min":[-0.998868823051453,-1.0,-0.998867213726044],"normalized":false,"type":"VEC3"},{"bufferView":58,"componentType":5126,"count":2210,"max":[1.0,1.0],"min":[0.0,0.0],"normalized":false,"type":"VEC2"},{"bufferView":59,"componentType":5123,"count":12672,"max":[2209.0],"min":[0.0],"normalized":false,"type":"SCALAR"},{"bufferView":60,"componentType":5126,"count":2210,"max":[0.499433666467667,0.5,0.499433666467667],"min":[-0.499433666467667,-0.5,-0.499433666467667],"normalized":false,"type":"VEC3"},{"bufferView":61,"componentType":5126,"count":2210,"max":[1.0,0.0,1.0,1.0],"min":[-1.0,-0.0000215795153053477,-1.0,1.0],"normalized":false,"type":"VEC4"},{"bufferView":62,"componentType":5126,"count":2210,"max":[0.998868048191071,1.0,0.998868048191071],"min":[-0.998868823051453,-1.0,-0.998867213726044],"normalized":false,"type":"VEC3"},{"bufferView":63,"componentType":5126,"count":2210,"max":[1.0,1.0],"min":[0.0,0.0],"normalized":false,"type":"VEC2"},{"bufferView":64,"componentType":5123,"count":12672,"max":[2209.0],"min":[0.0],"normalized":false,"type":"SCALAR"},{"bufferView":65,"componentType":5126,"count":2210,"max":[0.499433666467667,0.5,0.499433666467667],"min":[-0.499433666467667,-0.5,-0.499433666467667],"normalized":false,"type":"VEC3"},{"bufferView":66,"componentType":5126,"count":2210,"max":[1.0,0.0,1.0,1.0],"min":[-1.0,-0.0000215795153053477,-1.0,1.0],"normalized":false,"type":"VEC4"},{"bufferView":67,"componentType":5126,"count":2210,"max":[0.998868048191071,1.0,0.998868048191071],"min":[-0.998868823051453,-1.0,-0.998867213726044],"normalized":false,"type":"VEC3"},{"bufferView":68,"componentType":5126,"count":2210,"max":[1.0,1.0],"min":[0.0,0.0],"normalized":false,"type":"VEC2"},{"bufferView":69,"componentType":5123,"count":12672,"max":[2209.0],"min":[0.0],"normalized":false,"type":"SCALAR"},{"bufferView":70,"componentType":5126,"count":2210,"max":[0.499433666467667,0.5,0.499433666467667],"min":[-0.499433666467667,-0.5,-0.499433666467667],"normalized":false,"type":"VEC3"},{"bufferView":71,"componentType":5126,"count":2210,"max":[1.0,0.0,1.0,1.0],"min":[-1.0,-0.0000215795153053477,-1.0,1.0],"normalized":false,"type":"VEC4"},{"bufferView":72,"componentType":5126,"count":2210,"max":[0.998868048191071,1.0,0.998868048191071],"min":[-0.998868823051453,-1.0,-0.998867213726044],"normalized":false,"type":"VEC3"},{"bufferView":73,"componentType":5126,"count":2210,"max":[1.0,1.0],"min":[0.0,0.0],"normalized":false,"type":"VEC2"},{"bufferView":74,"componentType":5123,"count":12672,"max":[2209.0],"min":[0.0],"normalized":false,"type":"SCALAR"},{"bufferView":75,"componentType":5126,"count":2210,"max":[0.499433666467667,0.5,0.499433666467667],"min":[-0.499433666467667,-0.5,-0.499433666467667],"normalized":false,"type":"VEC3"},{"bufferView":76,"componentType":5126,"count":2210,"max":[1.0,0.0,1.0,1.0],"min":[-1.0,-0.0000215795153053477,-1.0,1.0],"normalized":false,"type":"VEC4"},{"bufferView":77,"componentType":5126,"count":2210,"max":[0.998868048191071,1.0,0.998868048191071],"min":[-0.998868823051453,-1.0,-0.998867213726044],"normalized":false,"type":"VEC3"},{"bufferView":78,"componentType":5126,"count":2210,"max":[1.0,1.0],"min":[0.0,0.0],"normalized":false,"type":"VEC2"},{"bufferView":79,"componentType":5123,"count":12672,"max":[2209.0],"min":[0.0],"normalized":false,"type":"SCALAR"},{"bufferView":80,"componentType":5126,"count":2210,"max":[0.499433666467667,0.5,0.499433666467667],"min":[-0.499433666467667,-0.5,-0.499433666467667],"normalized":false,"type":"VEC3"},{"bufferView":81,"componentType":5126,"count":2210,"max":[1.0,0.0,1.0,1.0],"min":[-1.0,-0.0000215795153053477,-1.0,1.0],"normalized":false,"type":"VEC4"},{"bufferView":82,"componentType":5126,"count":2210,"max":[0.998868048191071,1.0,0.998868048191071],"min":[-0.998868823051453,-1.0,-0.998867213726044],"normalized":false,"type":"VEC3"},{"bufferView":83,"componentType":5126,"count":2210,"max":[1.0,1.0],"min":[0.0,0.0],"normalized":false,"type":"VEC2"},{"bufferView":84,"componentType":5123,"count":12672,"max":[2209.0],"min":[0.0],"normalized":false,"type":"SCALAR"},{"bufferView":85,"componentType":5126,"count":2210,"max":[0.499433666467667,0.5,0.499433666467667],"min":[-0.499433666467667,-0.5,-0.499433666467667],"normalized":false,"type":"VEC3"},{"bufferView":86,"componentType":5126,"count":2210,"max":[1.0,0.0,1.0,1.0],"min":[-1.0,-0.0000215795153053477,-1.0,1.0],"normalized":false,"type":"VEC4"},{"bufferView":87,"componentType":5126,"count":2210,"max":[0.998868048191071,1.0,0.998868048191071],"min":[-0.998868823051453,-1.0,-0.998867213726044],"normalized":false,"type":"VEC3"},{"bufferView":88,"componentType":5126,"count":2210,"max":[1.0,1.0],"min":[0.0,0.0],"normalized":false,"type":"VEC2"},{"bufferView":89,"componentType":5123,"count":12672,"max":[2209.0],"min":[0.0],"normalized":false,"type":"SCALAR"},{"bufferView":90,"componentType":5126,"count":2210,"max":[0.499433666467667,0.5,0.499433666467667],"min":[-0.499433666467667,-0.5,-0.499433666467667],"normalized":false,"type":"VEC3"},{"bufferView":91,"componentType":5126,"count":2210,"max":[1.0,0.0,1.0,1.0],"min":[-1.0,-0.0000215795153053477,-1.0,1.0],"normalized":false,"type":"VEC4"},{"bufferView":92,"componentType":5126,"count":2210,"max":[0.998868048191071,1.0,0.998868048191071],"min":[-0.998868823051453,-1.0,-0.998867213726044],"normalized":false,"type":"VEC3"},{"bufferView":93,"componentType":5126,"count":2210,"max":[1.0,1.0],"min":[0.0,0.0],"normalized":false,"type":"VEC2"},{"bufferView":94,"componentType":5123,"count":12672,"max":[2209.0],"min":[0.0],"normalized":false,"type":"SCALAR"},{"bufferView":95,"componentType":5126,"count":2210,"max":[0.499433666467667,0.5,0.499433666467667],"min":[-0.499433666467667,-0.5,-0.499433666467667],"normalized":false,"type":"VEC3"},{"bufferView":96,"componentType":5126,"count":2210,"max":[1.0,0.0,1.0,1.0],"min":[-1.0,-0.0000215795153053477,-1.0,1.0],"normalized":false,"type":"VEC4"},{"bufferView":97,"componentType":5126,"count":2210,"max":[0.998868048191071,1.0,0.998868048191071],"min":[-0.998868823051453,-1.0,-0.998867213726044],"normalized":false,"type":"VEC3"},{"bufferView":98,"componentType":5126,"count":2210,"max":[1.0,1.0],"min":[0.0,0.0],"normalized":false,"type":"VEC2"},{"bufferView":99,"componentType":5123,"count":12672,"max":[2209.0],"min":[0.0],"normalized":false,"type":"SCALAR"},{"bufferView":100,"componentType":5126,"count":2210,"max":[0.499433666467667,0.5,0.499433666467667],"min":[-0.499433666467667,-0.5,-0.499433666467667],"normalized":false,"type":"VEC3"},{"bufferView":101,"componentType":5126,"count":2210,"max":[1.0,0.0,1.0,1.0],"min":[-1.0,-0.0000215795153053477,-1.0,1.0],"normalized":false,"type":"VEC4"},{"bufferView":102,"componentType":5126,"count":2210,"max":[0.998868048191071,1.0,0.998868048191071],"min":[-0.998868823051453,-1.0,-0.998867213726044],"normalized":false,"type":"VEC3"},{"bufferView":103,"componentType":5126,"count":2210,"max":[1.0,1.0],"min":[0.0,0.0],"normalized":false,"type":"VEC2"},{"bufferView":104,"componentType":5123,"count":12672,"max":[2209.0],"min":[0.0],"normalized":false,"type":"SCALAR"},{"bufferView":105,"componentType":5126,"count":2210,"max":[0.499433666467667,0.5,0.499433666467667],"min":[-0.499433666467667,-0.5,-0.499433666467667],"normalized":false,"type":"VEC3"},{"bufferView":106,"componentType":5126,"count":2210,"max":[1.0,0.0,1.0,1.0],"min":[-1.0,-0.0000215795153053477,-1.0,1.0],"normalized":false,"type":"VEC4"},{"bufferView":107,"componentType":5126,"count":2210,"max":[0.998868048191071,1.0,0.998868048191071],"min":[-0.998868823051453,-1.0,-0.998867213726044],"normalized":false,"type":"VEC3"},{"bufferView":108,"componentType":5126,"count":2210,"max":[1.0,1.0],"min":[0.0,0.0],"normalized":false,"type":"VEC2"},{"bufferView":109,"componentType":5123,"count":12672,"max":[2209.0],"min":[0.0],"normalized":false,"type":"SCALAR"},{"bufferView":110,"componentType":5126,"count":2210,"max":[0.499433666467667,0.5,0.499433666467667],"min":[-0.499433666467667,-0.5,-0.499433666467667],"normalized":false,"type":"VEC3"},{"bufferView":111,"componentType":5126,"count":2210,"max":[1.0,0.0,1.0,1.0],"min":[-1.0,-0.0000215795153053477,-1.0,1.0],"normalized":false,"type":"VEC4"},{"bufferView":112,"componentType":5126,"count":2210,"max":[0.998868048191071,1.0,0.998868048191071],"min":[-0.998868823051453,-1.0,-0.998867213726044],"normalized":false,"type":"VEC3"},{"bufferView":113,"componentType":5126,"count":2210,"max":[1.0,1.0],"min":[0.0,0.0],"normalized":false,"type":"VEC2"},{"bufferView":114,"componentType":5123,"count":12672,"max":[2209.0],"min":[0.0],"normalized":false,"type":"SCALAR"},{"bufferView":115,"componentType":5126,"count":2210,"max":[0.499433666467667,0.5,0.499433666467667],"min":[-0.499433666467667,-0.5,-0.499433666467667],"normalized":false,"type":"VEC3"},{"bufferView":116,"componentType":5126,"count":2210,"max":[1.0,0.0,1.0,1.0],"min":[-1.0,-0.0000215795153053477,-1.0,1.0],"normalized":false,"type":"VEC4"},{"bufferView":117,"componentType":5126,"count":2210,"max":[0.998868048191071,1.0,0.998868048191071],"min":[-0.998868823051453,-1.0,-0.998867213726044],"normalized":false,"type":"VEC3"},{"bufferView":118,"componentType":5126,"count":2210,"max":[1.0,1.0],"min":[0.0,0.0],"normalized":false,"type":"VEC2"},{"bufferView":119,"componentType":5123,"count":12672,"max":[2209.0],"min":[0.0],"normalized":false,"type":"SCALAR"},{"bufferView":120,"componentType":5126,"count":2210,"max":[0.499433666467667,0.5,0.499433666467667],"min":[-0.499433666467667,-0.5,-0.499433666467667],"normalized":false,"type":"VEC3"},{"bufferView":121,"componentType":5126,"count":2210,"max":[1.0,0.0,1.0,1.0],"min":[-1.0,-0.0000215795153053477,-1.0,1.0],"normalized":false,"type":"VEC4"},{"bufferView":122,"componentType":5126,"count":2210,"max":[0.998868048191071,1.0,0.998868048191071],"min":[-0.998868823051453,-1.0,-0.998867213726044],"normalized":false,"type":"VEC3"},{"bufferView":123,"componentType":5126,"count":2210,"max":[1.0,1.0],"min":[0.0,0.0],"normalized":false,"type":"VEC2"},{"bufferView":124,"componentType":5123,"count":12672,"max":[2209.0],"min":[0.0],"normalized":false,"type":"SCALAR"},{"bufferView":125,"componentType":5126,"count":2210,"max":[0.499433666467667,0.5,0.499433666467667],"min":[-0.499433666467667,-0.5,-0.499433666467667],"normalized":false,"type":"VEC3"},{"bufferView":126,"componentType":5126,"count":2210,"max":[1.0,0.0,1.0,1.0],"min":[-1.0,-0.0000215795153053477,-1.0,1.0],"normalized":false,"type":"VEC4"},{"bufferView":127,"componentType":5126,"count":2210,"max":[0.998868048191071,1.0,0.998868048191071],"min":[-0.998868823051453,-1.0,-0.998867213726044],"normalized":false,"type":"VEC3"},{"bufferView":128,"componentType":5126,"count":2210,"max":[1.0,1.0],"min":[0.0,0.0],"normalized":false,"type":"VEC2"},{"bufferView":129,"componentType":5123,"count":12672,"max":[2209.0],"min":[0.0],"normalized":false,"type":"SCALAR"},{"bufferView":130,"componentType":5126,"count":2210,"max":[0.499433666467667,0.5,0.499433666467667],"min":[-0.499433666467667,-0.5,-0.499433666467667],"normalized":false,"type":"VEC3"},{"bufferView":131,"componentType":5126,"count":2210,"max":[1.0,0.0,1.0,1.0],"min":[-1.0,-0.0000215795153053477,-1.0,1.0],"normalized":false,"type":"VEC4"},{"bufferView":132,"componentType":5126,"count":2210,"max":[0.998868048191071,1.0,0.998868048191071],"min":[-0.998868823051453,-1.0,-0.998867213726044],"normalized":false,"type":"VEC3"},{"bufferView":133,"componentType":5126,"count":2210,"max":[1.0,1.0],"min":[0.0,0.0],"normalized":false,"type":"VEC2"},{"bufferView":134,"componentType":5123,"count":12672,"max":[2209.0],"min":[0.0],"normalized":false,"type":"SCALAR"},{"bufferView":135,"componentType":5126,"count":2210,"max":[0.499433666467667,0.5,0.499433666467667],"min":[-0.499433666467667,-0.5,-0.499433666467667],"normalized":false,"type":"VEC3"},{"bufferView":136,"componentType":5126,"count":2210,"max":[1.0,0.0,1.0,1.0],"min":[-1.0,-0.0000215795153053477,-1.0,1.0],"normalized":false,"type":"VEC4"},{"bufferView":137,"componentType":5126,"count":2210,"max":[0.998868048191071,1.0,0.998868048191071],"min":[-0.998868823051453,-1.0,-0.998867213726044],"normalized":false,"type":"VEC3"},{"bufferView":138,"componentType":5126,"count":2210,"max":[1.0,1.0],"min":[0.0,0.0],"normalized":false,"type":"VEC2"},{"bufferView":139,"componentType":5123,"count":12672,"max":[2209.0],"min":[0.0],"normalized":false,"type":"SCALAR"},{"bufferView":140,"componentType":5126,"count":2210,"max":[0.499433666467667,0.5,0.499433666467667],"min":[-0.499433666467667,-0.5,-0.499433666467667],"normalized":false,"type":"VEC3"},{"bufferView":141,"componentType":5126,"count":2210,"max":[1.0,0.0,1.0,1.0],"min":[-1.0,-0.0000215795153053477,-1.0,1.0],"normalized":false,"type":"VEC4"},{"bufferView":142,"componentType":5126,"count":2210,"max":[0.998868048191071,1.0,0.998868048191071],"min":[-0.998868823051453,-1.0,-0.998867213726044],"normalized":false,"type":"VEC3"},{"bufferView":143,"componentType":5126,"count":2210,"max":[1.0,1.0],"min":[0.0,0.0],"normalized":false,"type":"VEC2"},{"bufferView":144,"componentType":5123,"count":12672,"max":[2209.0],"min":[0.0],"normalized":false,"type":"SCALAR"},{"bufferView":145,"componentType":5126,"count":2210,"max":[0.499433666467667,0.5,0.499433666467667],"min":[-0.499433666467667,-0.5,-0.499433666467667],"normalized":false,"type":"VEC3"},{"bufferView":146,"componentType":5126,"count":2210,"max":[1.0,0.0,1.0,1.0],"min":[-1.0,-0.0000215795153053477,-1.0,1.0],"normalized":false,"type":"VEC4"},{"bufferView":147,"componentType":5126,"count":2210,"max":[0.998868048191071,1.0,0.998868048191071],"min":[-0.998868823051453,-1.0,-0.998867213726044],"normalized":false,"type":"VEC3"},{"bufferView":148,"componentType":5126,"count":2210,"max":[1.0,1.0],"min":[0.0,0.0],"normalized":false,"type":"VEC2"},{"bufferView":149,"componentType":5123,"count":12672,"max":[2209.0],"min":[0.0],"normalized":false,"type":"SCALAR"},{"bufferView":150,"componentType":5126,"count":2210,"max":[0.499433666467667,0.5,0.499433666467667],"min":[-0.499433666467667,-0.5,-0.499433666467667],"normalized":false,"type":"VEC3"},{"bufferView":151,"componentType":5126,"count":2210,"max":[1.0,0.0,1.0,1.0],"min":[-1.0,-0.0000215795153053477,-1.0,1.0],"normalized":false,"type":"VEC4"},{"bufferView":152,"componentType":5126,"count":2210,"max":[0.998868048191071,1.0,0.998868048191071],"min":[-0.998868823051453,-1.0,-0.998867213726044],"normalized":false,"type":"VEC3"},{"bufferView":153,"componentType":5126,"count":2210,"max":[1.0,1.0],"min":[0.0,0.0],"normalized":false,"type":"VEC2"},{"bufferView":154,"componentType":5123,"count":12672,"max":[2209.0],"min":[0.0],"normalized":false,"type":"SCALAR"},{"bufferView":155,"componentType":5126,"count":2210,"max":[0.499433666467667,0.5,0.499433666467667],"min":[-0.499433666467667,-0.5,-0.499433666467667],"normalized":false,"type":"VEC3"},{"bufferView":156,"componentType":5126,"count":2210,"max":[1.0,0.0,1.0,1.0],"min":[-1.0,-0.0000215795153053477,-1.0,1.0],"normalized":false,"type":"VEC4"},{"bufferView":157,"componentType":5126,"count":2210,"max":[0.998868048191071,1.0,0.998868048191071],"min":[-0.998868823051453,-1.0,-0.998867213726044],"normalized":false,"type":"VEC3"},{"bufferView":158,"componentType":5126,"count":2210,"max":[1.0,1.0],"min":[0.0,0.0],"normalized":false,"type":"VEC2"},{"bufferView":159,"componentType":5123,"count":12672,"max":[2209.0],"min":[0.0],"normalized":false,"type":"SCALAR"},{"bufferView":160,"componentType":5126,"count":2210,"max":[0.499433666467667,0.5,0.499433666467667],"min":[-0.499433666467667,-0.5,-0.499433666467667],"normalized":false,"type":"VEC3"},{"bufferView":161,"componentType":5126,"count":2210,"max":[1.0,0.0,1.0,1.0],"min":[-1.0,-0.0000215795153053477,-1.0,1.0],"normalized":false,"type":"VEC4"},{"bufferView":162,"componentType":5126,"count":2210,"max":[0.998868048191071,1.0,0.998868048191071],"min":[-0.998868823051453,-1.0,-0.998867213726044],"normalized":false,"type":"VEC3"},{"bufferView":163,"componentType":5126,"count":2210,"max":[1.0,1.0],"min":[0.0,0.0],"normalized":false,"type":"VEC2"},{"bufferView":164,"componentType":5123,"count":12672,"max":[2209.0],"min":[0.0],"normalized":false,"type":"SCALAR"},{"bufferView":165,"componentType":5126,"count":2210,"max":[0.499433666467667,0.5,0.499433666467667],"min":[-0.499433666467667,-0.5,-0.499433666467667],"normalized":false,"type":"VEC3"},{"bufferView":166,"componentType":5126,"count":2210,"max":[1.0,0.0,1.0,1.0],"min":[-1.0,-0.0000215795153053477,-1.0,1.0],"normalized":false,"type":"VEC4"},{"bufferView":167,"componentType":5126,"count":2210,"max":[0.998868048191071,1.0,0.998868048191071],"min":[-0.998868823051453,-1.0,-0.998867213726044],"normalized":false,"type":"VEC3"},{"bufferView":168,"componentType":5126,"count":2210,"max":[1.0,1.0],"min":[0.0,0.0],"normalized":false,"type":"VEC2"},{"bufferView":169,"componentType":5123,"count":12672,"max":[2209.0],"min":[0.0],"normalized":false,"type":"SCALAR"},{"bufferView":170,"componentType":5126,"count":2210,"max":[0.499433666467667,0.5,0.499433666467667],"min":[-0.499433666467667,-0.5,-0.499433666467667],"normalized":false,"type":"VEC3"},{"bufferView":171,"componentType":5126,"count":2210,"max":[1.0,0.0,1.0,1.0],"min":[-1.0,-0.0000215795153053477,-1.0,1.0],"normalized":false,"type":"VEC4"},{"bufferView":172,"componentType":5126,"count":2210,"max":[0.998868048191071,1.0,0.998868048191071],"min":[-0.998868823051453,-1.0,-0.998867213726044],"normalized":false,"type":"VEC3"},{"bufferView":173,"componentType":5126,"count":2210,"max":[1.0,1.0],"min":[0.0,0.0],"normalized":false,"type":"VEC2"},{"bufferView":174,"componentType":5123,"count":12672,"max":[2209.0],"min":[0.0],"normalized":false,"type":"SCALAR"},{"bufferView":175,"componentType":5126,"count":2210,"max":[0.499433666467667,0.5,0.499433666467667],"min":[-0.499433666467667,-0.5,-0.499433666467667],"normalized":false,"type":"VEC3"},{"bufferView":176,"componentType":5126,"count":2210,"max":[1.0,0.0,1.0,1.0],"min":[-1.0,-0.0000215795153053477,-1.0,1.0],"normalized":false,"type":"VEC4"},{"bufferView":177,"componentType":5126,"count":2210,"max":[0.998868048191071,1.0,0.998868048191071],"min":[-0.998868823051453,-1.0,-0.998867213726044],"normalized":false,"type":"VEC3"},{"bufferView":178,"componentType":5126,"count":2210,"max":[1.0,1.0],"min":[0.0,0.0],"normalized":false,"type":"VEC2"},{"bufferView":179,"componentType":5123,"count":12672,"max":[2209.0],"min":[0.0],"normalized":false,"type":"SCALAR"},{"bufferView":180,"componentType":5126,"count":2210,"max":[0.499433666467667,0.5,0.499433666467667],"min":[-0.499433666467667,-0.5,-0.499433666467667],"normalized":false,"type":"VEC3"},{"bufferView":181,"componentType":5126,"count":2210,"max":[1.0,0.0,1.0,1.0],"min":[-1.0,-0.0000215795153053477,-1.0,1.0],"normalized":false,"type":"VEC4"},{"bufferView":182,"componentType":5126,"count":2210,"max":[0.998868048191071,1.0,0.998868048191071],"min":[-0.998868823051453,-1.0,-0.998867213726044],"normalized":false,"type":"VEC3"},{"bufferView":183,"componentType":5126,"count":2210,"max":[1.0,1.0],"min":[0.0,0.0],"normalized":false,"type":"VEC2"},{"bufferView":184,"componentType":5123,"count":12672,"max":[2209.0],"min":[0.0],"normalized":false,"type":"SCALAR"},{"bufferView":185,"componentType":5126,"count":2210,"max":[0.499433666467667,0.5,0.499433666467667],"min":[-0.499433666467667,-0.5,-0.499433666467667],"normalized":false,"type":"VEC3"},{"bufferView":186,"componentType":5126,"count":2210,"max":[1.0,0.0,1.0,1.0],"min":[-1.0,-0.0000215795153053477,-1.0,1.0],"normalized":false,"type":"VEC4"},{"bufferView":187,"componentType":5126,"count":2210,"max":[0.998868048191071,1.0,0.998868048191071],"min":[-0.998868823051453,-1.0,-0.998867213726044],"normalized":false,"type":"VEC3"},{"bufferView":188,"componentType":5126,"count":2210,"max":[1.0,1.0],"min":[0.0,0.0],"normalized":false,"type":"VEC2"},{"bufferView":189,"componentType":5123,"count":12672,"max":[2209.0],"min":[0.0],"normalized":false,"type":"SCALAR"},{"bufferView":190,"componentType":5126,"count":4,"max":[1.0,0.0,1.0],"min":[-1.0,0.0,-1.0],"normalized":false,"type":"VEC3"},{"bufferView":191,"componentType":5126,"count":4,"max":[1.0,0.0,-0.0000152590218931437,1.0],"min":[1.0,0.0,-0.0000152590218931437,1.0],"normalized":false,"type":"VEC4"},{"bufferView":192,"componentType":5126,"count":4,"max":[0.0,1.0,-0.0000152590218931437],"min":[0.0,1.0,-0.0000152590218931437],"normalized":false,"type":"VEC3"},{"bufferView":193,"componentType":5126,"count":4,"max":[1.0,1.0],"min":[0.0,0.0],"normalized":false,"type":"VEC2"},{"bufferView":194,"componentType":5123,"count":6,"max":[3.0],"min":[0.0],"normalized":false,"type":"SCALAR"},{"bufferView":195,"componentType":5126,"count":24,"max":[0.5,0.5,0.5],"min":[-0.5,-0.5,-0.5],"normalized":false,"type":"VEC3"},{"bufferView":196,"componentType":5126,"count":24,"max":[1.0,0.0,1.0,1.0],"min":[-1.0,-0.0000152592547237873,-1.0,1.0],"normalized":false,"type":"VEC4"},{"bufferView":197,"componentType":5126,"count":24,"max":[1.0,1.0,1.0],"min":[-1.0,-1.0,-1.0],"normalized":false,"type":"VEC3"},{"bufferView":198,"componentType":5126,"count":24,"max":[1.0,1.0],"min":[0.0,0.0],"normalized":false,"type":"VEC2"},{"bufferView":199,"componentType":5123,"count":36,"max":[23.0],"min":[0.0],"normalized":false,"type":"SCALAR"},{"bufferView":200,"componentType":5126,"count":2399,"max":[96.1798934936523,163.970001220703,53.9251976013184],"min":[-69.2985000610352,9.92936992645264,-61.328197479248],"normalized":false,"type":"VEC3"},{"bufferView":201,"componentType":5126,"count":2399,"max":[0.999997615814209,0.999721646308899,0.999973177909851,1.0],"min":[-0.677551805973053,-0.999359369277954,-0.999959886074066,-1.0],"normalized":false,"type":"VEC4"},{"bufferView":202,"componentType":5126,"count":2399,"max":[0.999596536159515,0.999580502510071,0.99843567609787],"min":[-0.999087274074554,-0.999999940395355,-0.999833643436432],"normalized":false,"type":"VEC3"},{"bufferView":203,"componentType":5126,"count":2399,"max":[0.983337163925171,0.980025947093964],"min":[0.0263981074094772,0.0199588015675545],"normalized":false,"type":"VEC2"},{"bufferView":204,"componentType":5123,"count":12636,"max":[2398.0],"min":[0.0],"normalized":false,"type":"SCALAR"},{"bufferView":205,"componentType":5126,"count":3204,"max":[96.1798934936523,163.970001220703,53.9139213562012],"min":[-69.2985000610352,9.92936992645264,-61.328197479248],"normalized":false,"type":"VEC3"},{"bufferView":206,"componentType":5123,"count":3204,"max":[3203.0],"min":[0.0],"normalized":false,"type":"SCALAR"},{"bufferView":207,"componentType":5126,"count":2399,"max":[96.1798934936523,163.970001220703,53.9251976013184],"min":[-69.2985000610352,9.92936992645264,-61.328197479248],"normalized":false,"type":"VEC3"},{"bufferView":208,"componentType":5126,"count":2399,"max":[0.999997615814209,0.999721646308899,0.999973177909851,1.0],"min":[-0.677551805973053,-0.999359369277954,-0.999959886074066,-1.0],"normalized":false,"type":"VEC4"},{"bufferView":209,"componentType":5126,"count":2399,"max":[0.999596536159515,0.999580502510071,0.99843567609787],"min":[-0.999087274074554,-0.999999940395355,-0.999833643436432],"normalized":false,"type":"VEC3"},{"bufferView":210,"componentType":5126,"count":2399,"max":[0.983337163925171,0.980025947093964],"min":[0.0263981074094772,0.0199588015675545],"normalized":false,"type":"VEC2"},{"bufferView":211,"componentType":5123,"count":12636,"max":[2398.0],"min":[0.0],"normalized":false,"type":"SCALAR"},{"bufferView":212,"componentType":5126,"count":2399,"max":[96.1798934936523,163.970001220703,53.9251976013184],"min":[-69.2985000610352,9.92936992645264,-61.328197479248],"normalized":false,"type":"VEC3"},{"bufferView":213,"componentType":5126,"count":2399,"max":[0.999997615814209,0.999721646308899,0.999973177909851,1.0],"min":[-0.677551805973053,-0.999359369277954,-0.999959886074066,-1.0],"normalized":false,"type":"VEC4"},{"bufferView":214,"componentType":5126,"count":2399,"max":[0.999596536159515,0.999580502510071,0.99843567609787],"min":[-0.999087274074554,-0.999999940395355,-0.999833643436432],"normalized":false,"type":"VEC3"},{"bufferView":215,"componentType":5126,"count":2399,"max":[0.983337163925171,0.980025947093964],"min":[0.0263981074094772,0.0199588015675545],"normalized":false,"type":"VEC2"},{"bufferView":216,"componentType":5123,"count":12636,"max":[2398.0],"min":[0.0],"normalized":false,"type":"SCALAR"},{"bufferView":217,"componentType":5126,"count":2399,"max":[96.1798934936523,163.970001220703,53.9251976013184],"min":[-69.2985000610352,9.92936992645264,-61.328197479248],"normalized":false,"type":"VEC3"},{"bufferView":218,"componentType":5126,"count":2399,"max":[0.999997615814209,0.999721646308899,0.999973177909851,1.0],"min":[-0.677551805973053,-0.999359369277954,-0.999959886074066,-1.0],"normalized":false,"type":"VEC4"},{"bufferView":219,"componentType":5126,"count":2399,"max":[0.999596536159515,0.999580502510071,0.99843567609787],"min":[-0.999087274074554,-0.999999940395355,-0.999833643436432],"normalized":false,"type":"VEC3"},{"bufferView":220,"componentType":5126,"count":2399,"max":[0.983337163925171,0.980025947093964],"min":[0.0263981074094772,0.0199588015675545],"normalized":false,"type":"VEC2"},{"bufferView":221,"componentType":5123,"count":12636,"max":[2398.0],"min":[0.0],"normalized":false,"type":"SCALAR"},{"bufferView":222,"componentType":5126,"count":2399,"max":[96.1798934936523,163.970001220703,53.9251976013184],"min":[-69.2985000610352,9.92936992645264,-61.328197479248],"normalized":false,"type":"VEC3"},{"bufferView":223,"componentType":5126,"count":2399,"max":[0.999997615814209,0.999721646308899,0.999973177909851,1.0],"min":[-0.677551805973053,-0.999359369277954,-0.999959886074066,-1.0],"normalized":false,"type":"VEC4"},{"bufferView":224,"componentType":5126,"count":2399,"max":[0.999596536159515,0.999580502510071,0.99843567609787],"min":[-0.999087274074554,-0.999999940395355,-0.999833643436432],"normalized":false,"type":"VEC3"},{"bufferView":225,"componentType":5126,"count":2399,"max":[0.983337163925171,0.980025947093964],"min":[0.0263981074094772,0.0199588015675545],"normalized":false,"type":"VEC2"},{"bufferView":226,"componentType":5123,"count":12636,"max":[2398.0],"min":[0.0],"normalized":false,"type":"SCALAR"},{"bufferView":227,"componentType":5126,"count":2399,"max":[96.1798934936523,163.970001220703,53.9251976013184],"min":[-69.2985000610352,9.92936992645264,-61.328197479248],"normalized":false,"type":"VEC3"},{"bufferView":228,"componentType":5126,"count":2399,"max":[0.999997615814209,0.999721646308899,0.999973177909851,1.0],"min":[-0.677551805973053,-0.999359369277954,-0.999959886074066,-1.0],"normalized":false,"type":"VEC4"},{"bufferView":229,"componentType":5126,"count":2399,"max":[0.999596536159515,0.999580502510071,0.99843567609787],"min":[-0.999087274074554,-0.999999940395355,-0.999833643436432],"normalized":false,"type":"VEC3"},{"bufferView":230,"componentType":5126,"count":2399,"max":[0.983337163925171,0.980025947093964],"min":[0.0263981074094772,0.0199588015675545],"normalized":false,"type":"VEC2"},{"bufferView":231,"componentType":5123,"count":12636,"max":[2398.0],"min":[0.0],"normalized":false,"type":"SCALAR"},{"bufferView":232,"componentType":5126,"count":2399,"max":[96.1798934936523,163.970001220703,53.9251976013184],"min":[-69.2985000610352,9.92936992645264,-61.328197479248],"normalized":false,"type":"VEC3"},{"bufferView":233,"componentType":5126,"count":2399,"max":[0.999997615814209,0.999721646308899,0.999973177909851,1.0],"min":[-0.677551805973053,-0.999359369277954,-0.999959886074066,-1.0],"normalized":false,"type":"VEC4"},{"bufferView":234,"componentType":5126,"count":2399,"max":[0.999596536159515,0.999580502510071,0.99843567609787],"min":[-0.999087274074554,-0.999999940395355,-0.999833643436432],"normalized":false,"type":"VEC3"},{"bufferView":235,"componentType":5126,"count":2399,"max":[0.983337163925171,0.980025947093964],"min":[0.0263981074094772,0.0199588015675545],"normalized":false,"type":"VEC2"},{"bufferView":236,"componentType":5123,"count":12636,"max":[2398.0],"min":[0.0],"normalized":false,"type":"SCALAR"}],"asset":{"generator":"Godot Engine v4.5.2.rc.custom_build@e8d76f7e52ab05842d1e3f70e065c0d8fc21da2b","version":"2.0"},"bufferViews":[{"buffer":0,"byteLength":26520,"byteStride":12,"target":34962},{"buffer":0,"byteLength":35360,"byteOffset":26520,"byteStride":16,"target":34962},{"buffer":0,"byteLength":26520,"byteOffset":61880,"byteStride":12,"target":34962},{"buffer":0,"byteLength":17680,"byteOffset":88400,"byteStride":8,"target":34962},{"buffer":0,"byteLength":25344,"byteOffset":106080,"target":34963},{"buffer":0,"byteLength":26520,"byteOffset":131424,"byteStride":12,"target":34962},{"buffer":0,"byteLength":35360,"byteOffset":157944,"byteStride":16,"target":34962},{"buffer":0,"byteLength":26520,"byteOffset":193304,"byteStride":12,"target":34962},{"buffer":0,"byteLength":17680,"byteOffset":219824,"byteStride":8,"target":34962},{"buffer":0,"byteLength":25344,"byteOffset":237504,"target":34963},{"buffer":0,"byteLength":26520,"byteOffset":262848,"byteStride":12,"target":34962},{"buffer":0,"byteLength":35360,"byteOffset":289368,"byteStride":16,"target":34962},{"buffer":0,"byteLength":26520,"byteOffset":324728,"byteStride":12,"target":34962},{"buffer":0,"byteLength":17680,"byteOffset":351248,"byteStride":8,"target":34962},{"buffer":0,"byteLength":25344,"byteOffset":368928,"target":34963},{"buffer":0,"byteLength":26520,"byteOffset":394272,"byteStride":12,"target":34962},{"buffer":0,"byteLength":35360,"byteOffset":420792,"byteStride":16,"target":34962},{"buffer":0,"byteLength":26520,"byteOffset":456152,"byteStride":12,"target":34962},{"buffer":0,"byteLength":17680,"byteOffset":482672,"byteStride":8,"target":34962},{"buffer":0,"byteLength":25344,"byteOffset":500352,"target":34963},{"buffer":0,"byteLength":26520,"byteOffset":525696,"byteStride":12,"target":34962},{"buffer":0,"byteLength":35360,"byteOffset":552216,"byteStride":16,"target":34962},{"buffer":0,"byteLength":26520,"byteOffset":587576,"byteStride":12,"target":34962},{"buffer":0,"byteLength":17680,"byteOffset":614096,"byteStride":8,"target":34962},{"buffer":0,"byteLength":25344,"byteOffset":631776,"target":34963},{"buffer":0,"byteLength":26520,"byteOffset":657120,"byteStride":12,"target":34962},{"buffer":0,"byteLength":35360,"byteOffset":683640,"byteStride":16,"target":34962},{"buffer":0,"byteLength":26520,"byteOffset":719000,"byteStride":12,"target":34962},{"buffer":0,"byteLength":17680,"byteOffset":745520,"byteStride":8,"target":34962},{"buffer":0,"byteLength":25344,"byteOffset":763200,"target":34963},{"buffer":0,"byteLength":26520,"byteOffset":788544,"byteStride":12,"target":34962},{"buffer":0,"byteLength":35360,"byteOffset":815064,"byteStride":16,"target":34962},{"buffer":0,"byteLength":26520,"byteOffset":850424,"byteStride":12,"target":34962},{"buffer":0,"byteLength":17680,"byteOffset":876944,"byteStride":8,"target":34962},{"buffer":0,"byteLength":25344,"byteOffset":894624,"target":34963},{"buffer":0,"byteLength":26520,"byteOffset":919968,"byteStride":12,"target":34962},{"buffer":0,"byteLength":35360,"byteOffset":946488,"byteStride":16,"target":34962},{"buffer":0,"byteLength":26520,"byteOffset":981848,"byteStride":12,"target":34962},{"buffer":0,"byteLength":17680,"byteOffset":1008368,"byteStride":8,"target":34962},{"buffer":0,"byteLength":25344,"byteOffset":1026048,"target":34963},{"buffer":0,"byteLength":26520,"byteOffset":1051392,"byteStride":12,"target":34962},{"buffer":0,"byteLength":35360,"byteOffset":1077912,"byteStride":16,"target":34962},{"buffer":0,"byteLength":26520,"byteOffset":1113272,"byteStride":12,"target":34962},{"buffer":0,"byteLength":17680,"byteOffset":1139792,"byteStride":8,"target":34962},{"buffer":0,"byteLength":25344,"byteOffset":1157472,"target":34963},{"buffer":0,"byteLength":26520,"byteOffset":1182816,"byteStride":12,"target":34962},{"buffer":0,"byteLength":35360,"byteOffset":1209336,"byteStride":16,"target":34962},{"buffer":0,"byteLength":26520,"byteOffset":1244696,"byteStride":12,"target":34962},{"buffer":0,"byteLength":17680,"byteOffset":1271216,"byteStride":8,"target":34962},{"buffer":0,"byteLength":25344,"byteOffset":1288896,"target":34963},{"buffer":0,"byteLength":26520,"byteOffset":1314240,"byteStride":12,"target":34962},{"buffer":0,"byteLength":35360,"byteOffset":1340760,"byteStride":16,"target":34962},{"buffer":0,"byteLength":26520,"byteOffset":1376120,"byteStride":12,"target":34962},{"buffer":0,"byteLength":17680,"byteOffset":1402640,"byteStride":8,"target":34962},{"buffer":0,"byteLength":25344,"byteOffset":1420320,"target":34963},{"buffer":0,"byteLength":26520,"byteOffset":1445664,"byteStride":12,"target":34962},{"buffer":0,"byteLength":35360,"byteOffset":1472184,"byteStride":16,"target":34962},{"buffer":0,"byteLength":26520,"byteOffset":1507544,"byteStride":12,"target":34962},{"buffer":0,"byteLength":17680,"byteOffset":1534064,"byteStride":8,"target":34962},{"buffer":0,"byteLength":25344,"byteOffset":1551744,"target":34963},{"buffer":0,"byteLength":26520,"byteOffset":1577088,"byteStride":12,"target":34962},{"buffer":0,"byteLength":35360,"byteOffset":1603608,"byteStride":16,"target":34962},{"buffer":0,"byteLength":26520,"byteOffset":1638968,"byteStride":12,"target":34962},{"buffer":0,"byteLength":17680,"byteOffset":1665488,"byteStride":8,"target":34962},{"buffer":0,"byteLength":25344,"byteOffset":1683168,"target":34963},{"buffer":0,"byteLength":26520,"byteOffset":1708512,"byteStride":12,"target":34962},{"buffer":0,"byteLength":35360,"byteOffset":1735032,"byteStride":16,"target":34962},{"buffer":0,"byteLength":26520,"byteOffset":1770392,"byteStride":12,"target":34962},{"buffer":0,"byteLength":17680,"byteOffset":1796912,"byteStride":8,"target":34962},{"buffer":0,"byteLength":25344,"byteOffset":1814592,"target":34963},{"buffer":0,"byteLength":26520,"byteOffset":1839936,"byteStride":12,"target":34962},{"buffer":0,"byteLength":35360,"byteOffset":1866456,"byteStride":16,"target":34962},{"buffer":0,"byteLength":26520,"byteOffset":1901816,"byteStride":12,"target":34962},{"buffer":0,"byteLength":17680,"byteOffset":1928336,"byteStride":8,"target":34962},{"buffer":0,"byteLength":25344,"byteOffset":1946016,"target":34963},{"buffer":0,"byteLength":26520,"byteOffset":1971360,"byteStride":12,"target":34962},{"buffer":0,"byteLength":35360,"byteOffset":1997880,"byteStride":16,"target":34962},{"buffer":0,"byteLength":26520,"byteOffset":2033240,"byteStride":12,"target":34962},{"buffer":0,"byteLength":17680,"byteOffset":2059760,"byteStride":8,"target":34962},{"buffer":0,"byteLength":25344,"byteOffset":2077440,"target":34963},{"buffer":0,"byteLength":26520,"byteOffset":2102784,"byteStride":12,"target":34962},{"buffer":0,"byteLength":35360,"byteOffset":2129304,"byteStride":16,"target":34962},{"buffer":0,"byteLength":26520,"byteOffset":2164664,"byteStride":12,"target":34962},{"buffer":0,"byteLength":17680,"byteOffset":2191184,"byteStride":8,"target":34962},{"buffer":0,"byteLength":25344,"byteOffset":2208864,"target":34963},{"buffer":0,"byteLength":26520,"byteOffset":2234208,"byteStride":12,"target":34962},{"buffer":0,"byteLength":35360,"byteOffset":2260728,"byteStride":16,"target":34962},{"buffer":0,"byteLength":26520,"byteOffset":2296088,"byteStride":12,"target":34962},{"buffer":0,"byteLength":17680,"byteOffset":2322608,"byteStride":8,"target":34962},{"buffer":0,"byteLength":25344,"byteOffset":2340288,"target":34963},{"buffer":0,"byteLength":26520,"byteOffset":2365632,"byteStride":12,"target":34962},{"buffer":0,"byteLength":35360,"byteOffset":2392152,"byteStride":16,"target":34962},{"buffer":0,"byteLength":26520,"byteOffset":2427512,"byteStride":12,"target":34962},{"buffer":0,"byteLength":17680,"byteOffset":2454032,"byteStride":8,"target":34962},{"buffer":0,"byteLength":25344,"byteOffset":2471712,"target":34963},{"buffer":0,"byteLength":26520,"byteOffset":2497056,"byteStride":12,"target":34962},{"buffer":0,"byteLength":35360,"byteOffset":2523576,"byteStride":16,"target":34962},{"buffer":0,"byteLength":26520,"byteOffset":2558936,"byteStride":12,"target":34962},{"buffer":0,"byteLength":17680,"byteOffset":2585456,"byteStride":8,"target":34962},{"buffer":0,"byteLength":25344,"byteOffset":2603136,"target":34963},{"buffer":0,"byteLength":26520,"byteOffset":2628480,"byteStride":12,"target":34962},{"buffer":0,"byteLength":35360,"byteOffset":2655000,"byteStride":16,"target":34962},{"buffer":0,"byteLength":26520,"byteOffset":2690360,"byteStride":12,"target":34962},{"buffer":0,"byteLength":17680,"byteOffset":2716880,"byteStride":8,"target":34962},{"buffer":0,"byteLength":25344,"byteOffset":2734560,"target":34963},{"buffer":0,"byteLength":26520,"byteOffset":2759904,"byteStride":12,"target":34962},{"buffer":0,"byteLength":35360,"byteOffset":2786424,"byteStride":16,"target":34962},{"buffer":0,"byteLength":26520,"byteOffset":2821784,"byteStride":12,"target":34962},{"buffer":0,"byteLength":17680,"byteOffset":2848304,"byteStride":8,"target":34962},{"buffer":0,"byteLength":25344,"byteOffset":2865984,"target":34963},{"buffer":0,"byteLength":26520,"byteOffset":2891328,"byteStride":12,"target":34962},{"buffer":0,"byteLength":35360,"byteOffset":2917848,"byteStride":16,"target":34962},{"buffer":0,"byteLength":26520,"byteOffset":2953208,"byteStride":12,"target":34962},{"buffer":0,"byteLength":17680,"byteOffset":2979728,"byteStride":8,"target":34962},{"buffer":0,"byteLength":25344,"byteOffset":2997408,"target":34963},{"buffer":0,"byteLength":26520,"byteOffset":3022752,"byteStride":12,"target":34962},{"buffer":0,"byteLength":35360,"byteOffset":3049272,"byteStride":16,"target":34962},{"buffer":0,"byteLength":26520,"byteOffset":3084632,"byteStride":12,"target":34962},{"buffer":0,"byteLength":17680,"byteOffset":3111152,"byteStride":8,"target":34962},{"buffer":0,"byteLength":25344,"byteOffset":3128832,"target":34963},{"buffer":0,"byteLength":26520,"byteOffset":3154176,"byteStride":12,"target":34962},{"buffer":0,"byteLength":35360,"byteOffset":3180696,"byteStride":16,"target":34962},{"buffer":0,"byteLength":26520,"byteOffset":3216056,"byteStride":12,"target":34962},{"buffer":0,"byteLength":17680,"byteOffset":3242576,"byteStride":8,"target":34962},{"buffer":0,"byteLength":25344,"byteOffset":3260256,"target":34963},{"buffer":0,"byteLength":26520,"byteOffset":3285600,"byteStride":12,"target":34962},{"buffer":0,"byteLength":35360,"byteOffset":3312120,"byteStride":16,"target":34962},{"buffer":0,"byteLength":26520,"byteOffset":3347480,"byteStride":12,"target":34962},{"buffer":0,"byteLength":17680,"byteOffset":3374000,"byteStride":8,"target":34962},{"buffer":0,"byteLength":25344,"byteOffset":3391680,"target":34963},{"buffer":0,"byteLength":26520,"byteOffset":3417024,"byteStride":12,"target":34962},{"buffer":0,"byteLength":35360,"byteOffset":3443544,"byteStride":16,"target":34962},{"buffer":0,"byteLength":26520,"byteOffset":3478904,"byteStride":12,"target":34962},{"buffer":0,"byteLength":17680,"byteOffset":3505424,"byteStride":8,"target":34962},{"buffer":0,"byteLength":25344,"byteOffset":3523104,"target":34963},{"buffer":0,"byteLength":26520,"byteOffset":3548448,"byteStride":12,"target":34962},{"buffer":0,"byteLength":35360,"byteOffset":3574968,"byteStride":16,"target":34962},{"buffer":0,"byteLength":26520,"byteOffset":3610328,"byteStride":12,"target":34962},{"buffer":0,"byteLength":17680,"byteOffset":3636848,"byteStride":8,"target":34962},{"buffer":0,"byteLength":25344,"byteOffset":3654528,"target":34963},{"buffer":0,"byteLength":26520,"byteOffset":3679872,"byteStride":12,"target":34962},{"buffer":0,"byteLength":35360,"byteOffset":3706392,"byteStride":16,"target":34962},{"buffer":0,"byteLength":26520,"byteOffset":3741752,"byteStride":12,"target":34962},{"buffer":0,"byteLength":17680,"byteOffset":3768272,"byteStride":8,"target":34962},{"buffer":0,"byteLength":25344,"byteOffset":3785952,"target":34963},{"buffer":0,"byteLength":26520,"byteOffset":3811296,"byteStride":12,"target":34962},{"buffer":0,"byteLength":35360,"byteOffset":3837816,"byteStride":16,"target":34962},{"buffer":0,"byteLength":26520,"byteOffset":3873176,"byteStride":12,"target":34962},{"buffer":0,"byteLength":17680,"byteOffset":3899696,"byteStride":8,"target":34962},{"buffer":0,"byteLength":25344,"byteOffset":3917376,"target":34963},{"buffer":0,"byteLength":26520,"byteOffset":3942720,"byteStride":12,"target":34962},{"buffer":0,"byteLength":35360,"byteOffset":3969240,"byteStride":16,"target":34962},{"buffer":0,"byteLength":26520,"byteOffset":4004600,"byteStride":12,"target":34962},{"buffer":0,"byteLength":17680,"byteOffset":4031120,"byteStride":8,"target":34962},{"buffer":0,"byteLength":25344,"byteOffset":4048800,"target":34963},{"buffer":0,"byteLength":26520,"byteOffset":4074144,"byteStride":12,"target":34962},{"buffer":0,"byteLength":35360,"byteOffset":4100664,"byteStride":16,"target":34962},{"buffer":0,"byteLength":26520,"byteOffset":4136024,"byteStride":12,"target":34962},{"buffer":0,"byteLength":17680,"byteOffset":4162544,"byteStride":8,"target":34962},{"buffer":0,"byteLength":25344,"byteOffset":4180224,"target":34963},{"buffer":0,"byteLength":26520,"byteOffset":4205568,"byteStride":12,"target":34962},{"buffer":0,"byteLength":35360,"byteOffset":4232088,"byteStride":16,"target":34962},{"buffer":0,"byteLength":26520,"byteOffset":4267448,"byteStride":12,"target":34962},{"buffer":0,"byteLength":17680,"byteOffset":4293968,"byteStride":8,"target":34962},{"buffer":0,"byteLength":25344,"byteOffset":4311648,"target":34963},{"buffer":0,"byteLength":26520,"byteOffset":4336992,"byteStride":12,"target":34962},{"buffer":0,"byteLength":35360,"byteOffset":4363512,"byteStride":16,"target":34962},{"buffer":0,"byteLength":26520,"byteOffset":4398872,"byteStride":12,"target":34962},{"buffer":0,"byteLength":17680,"byteOffset":4425392,"byteStride":8,"target":34962},{"buffer":0,"byteLength":25344,"byteOffset":4443072,"target":34963},{"buffer":0,"byteLength":26520,"byteOffset":4468416,"byteStride":12,"target":34962},{"buffer":0,"byteLength":35360,"byteOffset":4494936,"byteStride":16,"target":34962},{"buffer":0,"byteLength":26520,"byteOffset":4530296,"byteStride":12,"target":34962},{"buffer":0,"byteLength":17680,"byteOffset":4556816,"byteStride":8,"target":34962},{"buffer":0,"byteLength":25344,"byteOffset":4574496,"target":34963},{"buffer":0,"byteLength":26520,"byteOffset":4599840,"byteStride":12,"target":34962},{"buffer":0,"byteLength":35360,"byteOffset":4626360,"byteStride":16,"target":34962},{"buffer":0,"byteLength":26520,"byteOffset":4661720,"byteStride":12,"target":34962},{"buffer":0,"byteLength":17680,"byteOffset":4688240,"byteStride":8,"target":34962},{"buffer":0,"byteLength":25344,"byteOffset":4705920,"target":34963},{"buffer":0,"byteLength":26520,"byteOffset":4731264,"byteStride":12,"target":34962},{"buffer":0,"byteLength":35360,"byteOffset":4757784,"byteStride":16,"target":34962},{"buffer":0,"byteLength":26520,"byteOffset":4793144,"byteStride":12,"target":34962},{"buffer":0,"byteLength":17680,"byteOffset":4819664,"byteStride":8,"target":34962},{"buffer":0,"byteLength":25344,"byteOffset":4837344,"target":34963},{"buffer":0,"byteLength":26520,"byteOffset":4862688,"byteStride":12,"target":34962},{"buffer":0,"byteLength":35360,"byteOffset":4889208,"byteStride":16,"target":34962},{"buffer":0,"byteLength":26520,"byteOffset":4924568,"byteStride":12,"target":34962},{"buffer":0,"byteLength":17680,"byteOffset":4951088,"byteStride":8,"target":34962},{"buffer":0,"byteLength":25344,"byteOffset":4968768,"target":34963},{"buffer":0,"byteLength":48,"byteOffset":4994112,"byteStride":12,"target":34962},{"buffer":0,"byteLength":64,"byteOffset":4994160,"byteStride":16,"target":34962},{"buffer":0,"byteLength":48,"byteOffset":4994224,"byteStride":12,"target":34962},{"buffer":0,"byteLength":32,"byteOffset":4994272,"byteStride":8,"target":34962},{"buffer":0,"byteLength":12,"byteOffset":4994304,"target":34963},{"buffer":0,"byteLength":288,"byteOffset":4994316,"byteStride":12,"target":34962},{"buffer":0,"byteLength":384,"byteOffset":4994604,"byteStride":16,"target":34962},{"buffer":0,"byteLength":288,"byteOffset":4994988,"byteStride":12,"target":34962},{"buffer":0,"byteLength":192,"byteOffset":4995276,"byteStride":8,"target":34962},{"buffer":0,"byteLength":72,"byteOffset":4995468,"target":34963},{"buffer":0,"byteLength":28788,"byteOffset":4995540,"byteStride":12,"target":34962},{"buffer":0,"byteLength":38384,"byteOffset":5024328,"byteStride":16,"target":34962},{"buffer":0,"byteLength":28788,"byteOffset":5062712,"byteStride":12,"target":34962},{"buffer":0,"byteLength":19192,"byteOffset":5091500,"byteStride":8,"target":34962},{"buffer":0,"byteLength":25272,"byteOffset":5110692,"target":34963},{"buffer":0,"byteLength":38448,"byteOffset":5135964,"byteStride":12,"target":34962},{"buffer":0,"byteLength":6408,"byteOffset":5174412,"target":34963},{"buffer":0,"byteLength":28788,"byteOffset":5180820,"byteStride":12,"target":34962},{"buffer":0,"byteLength":38384,"byteOffset":5209608,"byteStride":16,"target":34962},{"buffer":0,"byteLength":28788,"byteOffset":5247992,"byteStride":12,"target":34962},{"buffer":0,"byteLength":19192,"byteOffset":5276780,"byteStride":8,"target":34962},{"buffer":0,"byteLength":25272,"byteOffset":5295972,"target":34963},{"buffer":0,"byteLength":28788,"byteOffset":5321244,"byteStride":12,"target":34962},{"buffer":0,"byteLength":38384,"byteOffset":5350032,"byteStride":16,"target":34962},{"buffer":0,"byteLength":28788,"byteOffset":5388416,"byteStride":12,"target":34962},{"buffer":0,"byteLength":19192,"byteOffset":5417204,"byteStride":8,"target":34962},{"buffer":0,"byteLength":25272,"byteOffset":5436396,"target":34963},{"buffer":0,"byteLength":28788,"byteOffset":5461668,"byteStride":12,"target":34962},{"buffer":0,"byteLength":38384,"byteOffset":5490456,"byteStride":16,"target":34962},{"buffer":0,"byteLength":28788,"byteOffset":5528840,"byteStride":12,"target":34962},{"buffer":0,"byteLength":19192,"byteOffset":5557628,"byteStride":8,"target":34962},{"buffer":0,"byteLength":25272,"byteOffset":5576820,"target":34963},{"buffer":0,"byteLength":28788,"byteOffset":5602092,"byteStride":12,"target":34962},{"buffer":0,"byteLength":38384,"byteOffset":5630880,"byteStride":16,"target":34962},{"buffer":0,"byteLength":28788,"byteOffset":5669264,"byteStride":12,"target":34962},{"buffer":0,"byteLength":19192,"byteOffset":5698052,"byteStride":8,"target":34962},{"buffer":0,"byteLength":25272,"byteOffset":5717244,"target":34963},{"buffer":0,"byteLength":28788,"byteOffset":5742516,"byteStride":12,"target":34962},{"buffer":0,"byteLength":38384,"byteOffset":5771304,"byteStride":16,"target":34962},{"buffer":0,"byteLength":28788,"byteOffset":5809688,"byteStride":12,"target":34962},{"buffer":0,"byteLength":19192,"byteOffset":5838476,"byteStride":8,"target":34962},{"buffer":0,"byteLength":25272,"byteOffset":5857668,"target":34963},{"buffer":0,"byteLength":28788,"byteOffset":5882940,"byteStride":12,"target":34962},{"buffer":0,"byteLength":38384,"byteOffset":5911728,"byteStride":16,"target":34962},{"buffer":0,"byteLength":28788,"byteOffset":5950112,"byteStride":12,"target":34962},{"buffer":0,"byteLength":19192,"byteOffset":5978900,"byteStride":8,"target":34962},{"buffer":0,"byteLength":25272,"byteOffset":5998092,"target":34963}],"buffers":[{"byteLength":6023364,"uri":"main0.bin"}],"cameras":[{"perspective":{"yfov":1.30899691581726,"zfar":4000.0,"znear":0.0500000007450581},"type":"perspective"}],"extensions":{"KHR_lights_punctual":{"lights":[{"intensity":0.144999995827675,"type":"directional"}]},"OMI_physics_body":{"physicsMaterials":[{"dynamicFriction":1.0,"frictionCombine":"average","restitution":0.759999990463257,"restitutionCombine":"average","staticFriction":1.0},{"dynamicFriction":1.0,"frictionCombine":"average","restitution":0.569999992847443,"restitutionCombine":"average","staticFriction":1.0},{"dynamicFriction":0.579999983310699,"frictionCombine":"average","restitution":0.839999973773956,"restitutionCombine":"average","staticFriction":0.579999983310699}]},"OMI_physics_shape":{"shapes":[{"sphere":{"radius":0.5},"type":"sphere"},{"box":{"size":[40.0,1.0,40.0]},"type":"box"},{"box":{"size":[40.0,20.0,0.100000001490116]},"type":"box"},{"convex":{"mesh":41},"type":"convex"}]}},"extensionsUsed":["GODOT_single_root","KHR_lights_punctual","OMI_physics_body","OMI_physics_shape"],"images":[{"uri":"textures%2FCementMaterial_albedo.png"},{"uri":"textures%2Fblinn3-fx_albedo.png"}],"materials":[{"extensions":{},"pbrMetallicRoughness":{"baseColorFactor":[0.491020888090134,0.00651209009811282,0.0251868572086096,1.0],"metallicFactor":0.0,"roughnessFactor":1.0}},{"extensions":{},"name":"CementMaterial","pbrMetallicRoughness":{"baseColorFactor":[1.0,1.0,1.0,1.0],"baseColorTexture":{"index":0},"metallicFactor":0.0,"roughnessFactor":0.800000011920929}},{"alphaMode":"BLEND","extensions":{},"pbrMetallicRoughness":{"baseColorFactor":[1.0,1.0,1.0,0.325490206480026],"metallicFactor":0.0,"roughnessFactor":1.0}},{"emissiveFactor":[0.0,0.0,0.0],"extensions":{},"name":"blinn3-fx","pbrMetallicRoughness":{"baseColorFactor":[1.0,1.0,1.0,1.0],"baseColorTexture":{"index":1},"metallicFactor":0.0,"roughnessFactor":1.0}}],"meshes":[{"primitives":[{"attributes":{"NORMAL":2,"POSITION":0,"TANGENT":1,"TEXCOORD_0":3},"indices":4,"material":0,"mode":4}]},{"primitives":[{"attributes":{"NORMAL":7,"POSITION":5,"TANGENT":6,"TEXCOORD_0":8},"indices":9,"material":0,"mode":4}]},{"primitives":[{"attributes":{"NORMAL":12,"POSITION":10,"TANGENT":11,"TEXCOORD_0":13},"indices":14,"material":0,"mode":4}]},{"primitives":[{"attributes":{"NORMAL":17,"POSITION":15,"TANGENT":16,"TEXCOORD_0":18},"indices":19,"material":0,"mode":4}]},{"primitives":[{"attributes":{"NORMAL":22,"POSITION":20,"TANGENT":21,"TEXCOORD_0":23},"indices":24,"material":0,"mode":4}]},{"primitives":[{"attributes":{"NORMAL":27,"POSITION":25,"TANGENT":26,"TEXCOORD_0":28},"indices":29,"material":0,"mode":4}]},{"primitives":[{"attributes":{"NORMAL":32,"POSITION":30,"TANGENT":31,"TEXCOORD_0":33},"indices":34,"material":0,"mode":4}]},{"primitives":[{"attributes":{"NORMAL":37,"POSITION":35,"TANGENT":36,"TEXCOORD_0":38},"indices":39,"material":0,"mode":4}]},{"primitives":[{"attributes":{"NORMAL":42,"POSITION":40,"TANGENT":41,"TEXCOORD_0":43},"indices":44,"material":0,"mode":4}]},{"primitives":[{"attributes":{"NORMAL":47,"POSITION":45,"TANGENT":46,"TEXCOORD_0":48},"indices":49,"material":0,"mode":4}]},{"primitives":[{"attributes":{"NORMAL":52,"POSITION":50,"TANGENT":51,"TEXCOORD_0":53},"indices":54,"material":0,"mode":4}]},{"primitives":[{"attributes":{"NORMAL":57,"POSITION":55,"TANGENT":56,"TEXCOORD_0":58},"indices":59,"material":0,"mode":4}]},{"primitives":[{"attributes":{"NORMAL":62,"POSITION":60,"TANGENT":61,"TEXCOORD_0":63},"indices":64,"material":0,"mode":4}]},{"primitives":[{"attributes":{"NORMAL":67,"POSITION":65,"TANGENT":66,"TEXCOORD_0":68},"indices":69,"material":0,"mode":4}]},{"primitives":[{"attributes":{"NORMAL":72,"POSITION":70,"TANGENT":71,"TEXCOORD_0":73},"indices":74,"material":0,"mode":4}]},{"primitives":[{"attributes":{"NORMAL":77,"POSITION":75,"TANGENT":76,"TEXCOORD_0":78},"indices":79,"material":0,"mode":4}]},{"primitives":[{"attributes":{"NORMAL":82,"POSITION":80,"TANGENT":81,"TEXCOORD_0":83},"indices":84,"material":0,"mode":4}]},{"primitives":[{"attributes":{"NORMAL":87,"POSITION":85,"TANGENT":86,"TEXCOORD_0":88},"indices":89,"material":0,"mode":4}]},{"primitives":[{"attributes":{"NORMAL":92,"POSITION":90,"TANGENT":91,"TEXCOORD_0":93},"indices":94,"material":0,"mode":4}]},{"primitives":[{"attributes":{"NORMAL":97,"POSITION":95,"TANGENT":96,"TEXCOORD_0":98},"indices":99,"material":0,"mode":4}]},{"primitives":[{"attributes":{"NORMAL":102,"POSITION":100,"TANGENT":101,"TEXCOORD_0":103},"indices":104,"material":0,"mode":4}]},{"primitives":[{"attributes":{"NORMAL":107,"POSITION":105,"TANGENT":106,"TEXCOORD_0":108},"indices":109,"material":0,"mode":4}]},{"primitives":[{"attributes":{"NORMAL":112,"POSITION":110,"TANGENT":111,"TEXCOORD_0":113},"indices":114,"material":0,"mode":4}]},{"primitives":[{"attributes":{"NORMAL":117,"POSITION":115,"TANGENT":116,"TEXCOORD_0":118},"indices":119,"material":0,"mode":4}]},{"primitives":[{"attributes":{"NORMAL":122,"POSITION":120,"TANGENT":121,"TEXCOORD_0":123},"indices":124,"material":0,"mode":4}]},{"primitives":[{"attributes":{"NORMAL":127,"POSITION":125,"TANGENT":126,"TEXCOORD_0":128},"indices":129,"material":0,"mode":4}]},{"primitives":[{"attributes":{"NORMAL":132,"POSITION":130,"TANGENT":131,"TEXCOORD_0":133},"indices":134,"material":0,"mode":4}]},{"primitives":[{"attributes":{"NORMAL":137,"POSITION":135,"TANGENT":136,"TEXCOORD_0":138},"indices":139,"material":0,"mode":4}]},{"primitives":[{"attributes":{"NORMAL":142,"POSITION":140,"TANGENT":141,"TEXCOORD_0":143},"indices":144,"material":0,"mode":4}]},{"primitives":[{"attributes":{"NORMAL":147,"POSITION":145,"TANGENT":146,"TEXCOORD_0":148},"indices":149,"material":0,"mode":4}]},{"primitives":[{"attributes":{"NORMAL":152,"POSITION":150,"TANGENT":151,"TEXCOORD_0":153},"indices":154,"material":0,"mode":4}]},{"primitives":[{"attributes":{"NORMAL":157,"POSITION":155,"TANGENT":156,"TEXCOORD_0":158},"indices":159,"material":0,"mode":4}]},{"primitives":[{"attributes":{"NORMAL":162,"POSITION":160,"TANGENT":161,"TEXCOORD_0":163},"indices":164,"material":0,"mode":4}]},{"primitives":[{"attributes":{"NORMAL":167,"POSITION":165,"TANGENT":166,"TEXCOORD_0":168},"indices":169,"material":0,"mode":4}]},{"primitives":[{"attributes":{"NORMAL":172,"POSITION":170,"TANGENT":171,"TEXCOORD_0":173},"indices":174,"material":0,"mode":4}]},{"primitives":[{"attributes":{"NORMAL":177,"POSITION":175,"TANGENT":176,"TEXCOORD_0":178},"indices":179,"material":0,"mode":4}]},{"primitives":[{"attributes":{"NORMAL":182,"POSITION":180,"TANGENT":181,"TEXCOORD_0":183},"indices":184,"material":0,"mode":4}]},{"primitives":[{"attributes":{"NORMAL":187,"POSITION":185,"TANGENT":186,"TEXCOORD_0":188},"indices":189,"material":0,"mode":4}]},{"primitives":[{"attributes":{"NORMAL":192,"POSITION":190,"TANGENT":191,"TEXCOORD_0":193},"indices":194,"material":1,"mode":4}]},{"primitives":[{"attributes":{"NORMAL":197,"POSITION":195,"TANGENT":196,"TEXCOORD_0":198},"indices":199,"material":2,"mode":4}]},{"primitives":[{"attributes":{"NORMAL":202,"POSITION":200,"TANGENT":201,"TEXCOORD_0":203},"indices":204,"material":3,"mode":4}]},{"primitives":[{"attributes":{"POSITION":205},"indices":206,"mode":4}]},{"primitives":[{"attributes":{"NORMAL":209,"POSITION":207,"TANGENT":208,"TEXCOORD_0":210},"indices":211,"material":3,"mode":4}]},{"primitives":[{"attributes":{"NORMAL":214,"POSITION":212,"TANGENT":213,"TEXCOORD_0":215},"indices":216,"material":3,"mode":4}]},{"primitives":[{"attributes":{"NORMAL":219,"POSITION":217,"TANGENT":218,"TEXCOORD_0":220},"indices":221,"material":3,"mode":4}]},{"primitives":[{"attributes":{"NORMAL":224,"POSITION":222,"TANGENT":223,"TEXCOORD_0":225},"indices":226,"material":3,"mode":4}]},{"primitives":[{"attributes":{"NORMAL":229,"POSITION":227,"TANGENT":228,"TEXCOORD_0":230},"indices":231,"material":3,"mode":4}]},{"primitives":[{"attributes":{"NORMAL":234,"POSITION":232,"TANGENT":233,"TEXCOORD_0":235},"indices":236,"material":3,"mode":4}]}],"nodes":[{"children":[1,2,3,4,119,124],"name":"Scene"},{"name":"WorldEnvironment"},{"camera":0,"name":"Camera3D","rotation":[-0.00000001642760949494,0.926692724227905,0.375819951295853,-0.0000000405070252895712],"translation":[-0.056060791015625,28.4762668609619,-12.7209987640381]},{"extensions":{"KHR_lights_punctual":{"light":0}},"name":"DirectionalLight3D","rotation":[0.0,0.0,-0.130526199936867,0.991444885730743],"translation":[0.0,5.0,0.0]},{"children":[5,8,11,14,17,20,23,26,29,32,35,38,41,44,47,50,53,56,59,62,65,68,71,74,77,80,83,86,89,92,95,98,101,104,107,110,113,116],"name":"Balls"},{"children":[6,7],"extensions":{"OMI_physics_body":{"motion":{"type":"dynamic"}}},"name":"Ball","translation":[13.1100769042969,11.2600002288818,0.0]},{"extensions":{"OMI_physics_body":{"collider":{"physicsMaterial":0,"shape":0}}},"name":"CollisionShape3D"},{"mesh":0,"name":"MeshInstance3D"},{"children":[9,10],"extensions":{"OMI_physics_body":{"motion":{"type":"dynamic"}}},"name":"Ball2","translation":[7.05278968811035,11.2600002288818,-2.44405364990234]},{"extensions":{"OMI_physics_body":{"collider":{"physicsMaterial":0,"shape":0}}},"name":"CollisionShape3D2"},{"mesh":1,"name":"MeshInstance3D2"},{"children":[12,13],"extensions":{"OMI_physics_body":{"motion":{"type":"dynamic"}}},"name":"Ball3","translation":[2.70055961608887,11.2600002288818,-2.44405364990234]},{"extensions":{"OMI_physics_body":{"collider":{"physicsMaterial":0,"shape":0}}},"name":"CollisionShape3D3"},{"mesh":2,"name":"MeshInstance3D3"},{"children":[15,16],"extensions":{"OMI_physics_body":{"motion":{"type":"dynamic"}}},"name":"Ball4","translation":[2.70055961608887,11.2600002288818,2.74989700317383]},{"extensions":{"OMI_physics_body":{"collider":{"physicsMaterial":0,"shape":0}}},"name":"CollisionShape3D4"},{"mesh":3,"name":"MeshInstance3D4"},{"children":[18,19],"extensions":{"OMI_physics_body":{"motion":{"type":"dynamic"}}},"name":"Ball5","translation":[5.4616870880127,11.2600002288818,2.74989700317383]},{"extensions":{"OMI_physics_body":{"collider":{"physicsMaterial":0,"shape":0}}},"name":"CollisionShape3D5"},{"mesh":4,"name":"MeshInstance3D5"},{"children":[21,22],"extensions":{"OMI_physics_body":{"motion":{"type":"dynamic"}}},"name":"Ball6","translation":[-2.23662948608398,11.2600002288818,2.74989700317383]},{"extensions":{"OMI_physics_body":{"collider":{"physicsMaterial":0,"shape":0}}},"name":"CollisionShape3D6"},{"mesh":5,"name":"MeshInstance3D6"},{"children":[24,25],"extensions":{"OMI_physics_body":{"motion":{"type":"dynamic"}}},"name":"Ball7","translation":[-2.23662948608398,11.2600002288818,6.68798828125]},{"extensions":{"OMI_physics_body":{"collider":{"physicsMaterial":0,"shape":0}}},"name":"CollisionShape3D7"},{"mesh":6,"name":"MeshInstance3D7"},{"children":[27,28],"extensions":{"OMI_physics_body":{"motion":{"type":"dynamic"}}},"name":"Ball8","translation":[-5.07001209259033,11.2600002288818,6.68798828125]},{"extensions":{"OMI_physics_body":{"collider":{"physicsMaterial":0,"shape":0}}},"name":"CollisionShape3D8"},{"mesh":7,"name":"MeshInstance3D8"},{"children":[30,31],"extensions":{"OMI_physics_body":{"motion":{"type":"dynamic"}}},"name":"Ball9","translation":[-5.07001209259033,13.4970264434814,0.931211471557617]},{"extensions":{"OMI_physics_body":{"collider":{"physicsMaterial":0,"shape":0}}},"name":"CollisionShape3D9"},{"mesh":8,"name":"MeshInstance3D9"},{"children":[33,34],"extensions":{"OMI_physics_body":{"motion":{"type":"dynamic"}}},"name":"Ball10","translation":[13.1100769042969,13.5758152008057,-8.57973861694336]},{"extensions":{"OMI_physics_body":{"collider":{"physicsMaterial":0,"shape":0}}},"name":"CollisionShape3D10"},{"mesh":9,"name":"MeshInstance3D10"},{"children":[36,37],"extensions":{"OMI_physics_body":{"motion":{"type":"dynamic"}}},"name":"Ball29","rotation":[0.0,0.0,-0.140339627861977,0.990103423595428],"translation":[9.02955436706543,17.0743865966797,-5.62126398086548]},{"extensions":{"OMI_physics_body":{"collider":{"physicsMaterial":0,"shape":0}}},"name":"CollisionShape3D11"},{"mesh":10,"name":"MeshInstance3D11"},{"children":[39,40],"extensions":{"OMI_physics_body":{"motion":{"type":"dynamic"}}},"name":"Ball30","rotation":[0.0,0.0,-0.140339627861977,0.990103423595428],"translation":[3.21086692810059,18.7577171325684,-8.06531715393066]},{"extensions":{"OMI_physics_body":{"collider":{"physicsMaterial":0,"shape":0}}},"name":"CollisionShape3D12"},{"mesh":11,"name":"MeshInstance3D12"},{"children":[42,43],"extensions":{"OMI_physics_body":{"motion":{"type":"dynamic"}}},"name":"Ball31","rotation":[0.0,0.0,-0.140339627861977,0.990103423595428],"translation":[-0.969927310943604,19.9672069549561,-8.06531715393066]},{"extensions":{"OMI_physics_body":{"collider":{"physicsMaterial":0,"shape":0}}},"name":"CollisionShape3D13"},{"mesh":12,"name":"MeshInstance3D13"},{"children":[45,46],"extensions":{"OMI_physics_body":{"motion":{"type":"dynamic"}}},"name":"Ball32","rotation":[0.0,0.0,-0.140339627861977,0.990103423595428],"translation":[-0.969927310943604,19.9672069549561,-2.87136697769165]},{"extensions":{"OMI_physics_body":{"collider":{"physicsMaterial":0,"shape":0}}},"name":"CollisionShape3D14"},{"mesh":13,"name":"MeshInstance3D14"},{"children":[48,49],"extensions":{"OMI_physics_body":{"motion":{"type":"dynamic"}}},"name":"Ball33","rotation":[0.0,0.0,-0.140339627861977,0.990103423595428],"translation":[1.68243789672852,19.1998863220215,-2.87136697769165]},{"extensions":{"OMI_physics_body":{"collider":{"physicsMaterial":0,"shape":0}}},"name":"CollisionShape3D15"},{"mesh":14,"name":"MeshInstance3D15"},{"children":[51,52],"extensions":{"OMI_physics_body":{"motion":{"type":"dynamic"}}},"name":"Ball34","rotation":[0.0,0.0,-0.140339627861977,0.990103423595428],"translation":[-5.71263790130615,21.3392601013184,-2.87136697769165]},{"extensions":{"OMI_physics_body":{"collider":{"physicsMaterial":0,"shape":0}}},"name":"CollisionShape3D16"},{"mesh":15,"name":"MeshInstance3D16"},{"children":[54,55],"extensions":{"OMI_physics_body":{"motion":{"type":"dynamic"}}},"name":"Ball35","rotation":[0.0,0.0,-0.140339627861977,0.990103423595428],"translation":[-5.71263790130615,21.3392601013184,1.06672430038452]},{"extensions":{"OMI_physics_body":{"collider":{"physicsMaterial":0,"shape":0}}},"name":"CollisionShape3D17"},{"mesh":16,"name":"MeshInstance3D17"},{"children":[57,58],"extensions":{"OMI_physics_body":{"motion":{"type":"dynamic"}}},"name":"Ball36","rotation":[0.0,0.0,-0.140339627861977,0.990103423595428],"translation":[-8.43441200256348,22.1266613006592,1.06672430038452]},{"extensions":{"OMI_physics_body":{"collider":{"physicsMaterial":0,"shape":0}}},"name":"CollisionShape3D18"},{"mesh":17,"name":"MeshInstance3D18"},{"children":[60,61],"extensions":{"OMI_physics_body":{"motion":{"type":"dynamic"}}},"name":"Ball37","rotation":[0.0,0.0,-0.140339627861977,0.990103423595428],"translation":[-7.81273937225342,24.2755699157715,-4.69005250930786]},{"extensions":{"OMI_physics_body":{"collider":{"physicsMaterial":0,"shape":0}}},"name":"CollisionShape3D19"},{"mesh":18,"name":"MeshInstance3D19"},{"children":[63,64],"extensions":{"OMI_physics_body":{"motion":{"type":"dynamic"}}},"name":"Ball38","rotation":[0.0,0.0,-0.140339627861977,0.990103423595428],"translation":[9.67312240600586,19.2989807128906,-14.2010021209717]},{"extensions":{"OMI_physics_body":{"collider":{"physicsMaterial":0,"shape":0}}},"name":"CollisionShape3D20"},{"mesh":19,"name":"MeshInstance3D20"},{"children":[66,67],"extensions":{"OMI_physics_body":{"motion":{"type":"dynamic"}}},"name":"Ball19","rotation":[0.141480058431625,0.0,0.0,0.989941120147705],"translation":[13.1100769042969,16.7249794006348,-0.0911450982093811]},{"extensions":{"OMI_physics_body":{"collider":{"physicsMaterial":0,"shape":0}}},"name":"CollisionShape3D21"},{"mesh":20,"name":"MeshInstance3D21"},{"children":[69,70],"extensions":{"OMI_physics_body":{"motion":{"type":"dynamic"}}},"name":"Ball20","rotation":[0.141480058431625,0.0,0.0,0.989941120147705],"translation":[7.05278968811035,17.4095916748047,-2.43735527992249]},{"extensions":{"OMI_physics_body":{"collider":{"physicsMaterial":0,"shape":0}}},"name":"CollisionShape3D22"},{"mesh":21,"name":"MeshInstance3D22"},{"children":[72,73],"extensions":{"OMI_physics_body":{"motion":{"type":"dynamic"}}},"name":"Ball21","rotation":[0.141480058431625,0.0,0.0,0.989941120147705],"translation":[2.70055961608887,17.4095916748047,-2.43735527992249]},{"extensions":{"OMI_physics_body":{"collider":{"physicsMaterial":0,"shape":0}}},"name":"CollisionShape3D23"},{"mesh":22,"name":"MeshInstance3D23"},{"children":[75,76],"extensions":{"OMI_physics_body":{"motion":{"type":"dynamic"}}},"name":"Ball22","rotation":[0.141480058431625,0.0,0.0,0.989941120147705],"translation":[2.70055961608887,15.9546947479248,2.54866456985474]},{"extensions":{"OMI_physics_body":{"collider":{"physicsMaterial":0,"shape":0}}},"name":"CollisionShape3D24"},{"mesh":23,"name":"MeshInstance3D24"},{"children":[78,79],"extensions":{"OMI_physics_body":{"motion":{"type":"dynamic"}}},"name":"Ball23","rotation":[0.141480058431625,0.0,0.0,0.989941120147705],"translation":[5.4616870880127,15.9546947479248,2.54866456985474]},{"extensions":{"OMI_physics_body":{"collider":{"physicsMaterial":0,"shape":0}}},"name":"CollisionShape3D25"},{"mesh":24,"name":"MeshInstance3D25"},{"children":[81,82],"extensions":{"OMI_physics_body":{"motion":{"type":"dynamic"}}},"name":"Ball24","rotation":[0.141480058431625,0.0,0.0,0.989941120147705],"translation":[-2.23662924766541,15.9546947479248,2.54866456985474]},{"extensions":{"OMI_physics_body":{"collider":{"physicsMaterial":0,"shape":0}}},"name":"CollisionShape3D26"},{"mesh":25,"name":"MeshInstance3D26"},{"children":[84,85],"extensions":{"OMI_physics_body":{"motion":{"type":"dynamic"}}},"name":"Ball25","rotation":[0.141480058431625,0.0,0.0,0.989941120147705],"translation":[-2.23662924766541,14.851580619812,6.3291015625]},{"extensions":{"OMI_physics_body":{"collider":{"physicsMaterial":0,"shape":0}}},"name":"CollisionShape3D27"},{"mesh":26,"name":"MeshInstance3D27"},{"children":[87,88],"extensions":{"OMI_physics_body":{"motion":{"type":"dynamic"}}},"name":"Ball26","rotation":[0.141480058431625,0.0,0.0,0.989941120147705],"translation":[-5.07001209259033,14.851580619812,6.3291015625]},{"extensions":{"OMI_physics_body":{"collider":{"physicsMaterial":0,"shape":0}}},"name":"CollisionShape3D28"},{"mesh":27,"name":"MeshInstance3D28"},{"children":[90,91],"extensions":{"OMI_physics_body":{"motion":{"type":"dynamic"}}},"name":"Ball27","rotation":[0.141480058431625,0.0,0.0,0.989941120147705],"translation":[-5.07001209259033,18.6116046905518,1.42940902709961]},{"extensions":{"OMI_physics_body":{"collider":{"physicsMaterial":0,"shape":0}}},"name":"CollisionShape3D29"},{"mesh":28,"name":"MeshInstance3D29"},{"children":[93,94],"extensions":{"OMI_physics_body":{"motion":{"type":"dynamic"}}},"name":"Ball28","rotation":[0.141480058431625,0.0,0.0,0.989941120147705],"translation":[13.1100769042969,21.3513870239258,-7.67871761322021]},{"extensions":{"OMI_physics_body":{"collider":{"physicsMaterial":0,"shape":0}}},"name":"CollisionShape3D30"},{"mesh":29,"name":"MeshInstance3D30"},{"children":[96,97],"extensions":{"OMI_physics_body":{"motion":{"type":"dynamic"}}},"name":"Ball11","translation":[7.05278968811035,13.5758152008057,-11.0237922668457]},{"extensions":{"OMI_physics_body":{"collider":{"physicsMaterial":0,"shape":0}}},"name":"CollisionShape3D31"},{"mesh":30,"name":"MeshInstance3D31"},{"children":[99,100],"extensions":{"OMI_physics_body":{"motion":{"type":"dynamic"}}},"name":"Ball12","translation":[2.70055961608887,13.5758152008057,-11.0237922668457]},{"extensions":{"OMI_physics_body":{"collider":{"physicsMaterial":0,"shape":0}}},"name":"CollisionShape3D32"},{"mesh":31,"name":"MeshInstance3D32"},{"children":[102,103],"extensions":{"OMI_physics_body":{"motion":{"type":"dynamic"}}},"name":"Ball13","translation":[2.70055961608887,13.5758152008057,-5.82984161376953]},{"extensions":{"OMI_physics_body":{"collider":{"physicsMaterial":0,"shape":0}}},"name":"CollisionShape3D33"},{"mesh":32,"name":"MeshInstance3D33"},{"children":[105,106],"extensions":{"OMI_physics_body":{"motion":{"type":"dynamic"}}},"name":"Ball14","translation":[5.4616870880127,13.5758152008057,-5.82984161376953]},{"extensions":{"OMI_physics_body":{"collider":{"physicsMaterial":0,"shape":0}}},"name":"CollisionShape3D34"},{"mesh":33,"name":"MeshInstance3D34"},{"children":[108,109],"extensions":{"OMI_physics_body":{"motion":{"type":"dynamic"}}},"name":"Ball15","translation":[-2.23662948608398,13.5758152008057,-5.82984161376953]},{"extensions":{"OMI_physics_body":{"collider":{"physicsMaterial":0,"shape":0}}},"name":"CollisionShape3D35"},{"mesh":34,"name":"MeshInstance3D35"},{"children":[111,112],"extensions":{"OMI_physics_body":{"motion":{"type":"dynamic"}}},"name":"Ball16","translation":[-2.23662948608398,13.5758152008057,-1.89175033569336]},{"extensions":{"OMI_physics_body":{"collider":{"physicsMaterial":0,"shape":0}}},"name":"CollisionShape3D36"},{"mesh":35,"name":"MeshInstance3D36"},{"children":[114,115],"extensions":{"OMI_physics_body":{"motion":{"type":"dynamic"}}},"name":"Ball17","translation":[-5.07001209259033,13.5758152008057,-1.89175033569336]},{"extensions":{"OMI_physics_body":{"collider":{"physicsMaterial":0,"shape":0}}},"name":"CollisionShape3D37"},{"mesh":36,"name":"MeshInstance3D37"},{"children":[117,118],"extensions":{"OMI_physics_body":{"motion":{"type":"dynamic"}}},"name":"Ball18","translation":[-5.07001209259033,15.8128414154053,-7.64852714538574]},{"extensions":{"OMI_physics_body":{"collider":{"physicsMaterial":0,"shape":0}}},"name":"CollisionShape3D38"},{"mesh":37,"name":"MeshInstance3D38"},{"children":[120,121,122],"extensions":{"OMI_physics_body":{"motion":{"type":"static"}}},"name":"Floor","rotation":[0.160992339253426,0.0,0.0,0.986955642700195]},{"extensions":{"OMI_physics_body":{"collider":{"physicsMaterial":1,"shape":1}}},"name":"CollisionShape3D39"},{"mesh":38,"name":"MeshInstance3D39","scale":[20.0,1.0,20.0]},{"children":[123],"extensions":{"OMI_physics_body":{"collider":{"physicsMaterial":1,"shape":2}}},"name":"WallSouth","translation":[-0.128000006079674,10.0,20.0359992980957]},{"mesh":39,"name":"MeshInstance3D40","scale":[40.0,20.0,0.100000001490116]},{"children":[125,128,131,134,137,140,143],"name":"Ducks"},{"children":[126,127],"extensions":{"OMI_physics_body":{"motion":{"type":"dynamic"}}},"name":"Duck","translation":[0.0,7.64929628372192,0.0]},{"mesh":40,"name":"duckMesh","scale":[0.0199999995529652,0.0199999995529652,0.0199999995529652]},{"extensions":{"OMI_physics_body":{"collider":{"physicsMaterial":2,"shape":3}}},"name":"CollisionShape3D40","scale":[0.0199999995529652,0.0199999995529652,0.0199999995529652]},{"children":[129,130],"extensions":{"OMI_physics_body":{"motion":{"type":"dynamic"}}},"name":"Duck2","translation":[5.97833728790283,8.31721496582031,-10.5717573165894]},{"mesh":42,"name":"duckMesh2","scale":[0.0199999995529652,0.0199999995529652,0.0199999995529652]},{"extensions":{"OMI_physics_body":{"collider":{"physicsMaterial":2,"shape":3}}},"name":"CollisionShape3D41","scale":[0.0199999995529652,0.0199999995529652,0.0199999995529652]},{"children":[132,133],"extensions":{"OMI_physics_body":{"motion":{"type":"dynamic"}}},"name":"Duck7","rotation":[0.0,-0.513698518276215,0.0,0.857970774173737],"translation":[9.60794544219971,6.55101203918457,-4.34240674972534]},{"mesh":43,"name":"duckMesh3","scale":[0.0199999995529652,0.0199999995529652,0.0199999995529652]},{"extensions":{"OMI_physics_body":{"collider":{"physicsMaterial":2,"shape":3}}},"name":"CollisionShape3D42","scale":[0.0199999995529652,0.0199999995529652,0.0199999995529652]},{"children":[135,136],"extensions":{"OMI_physics_body":{"motion":{"type":"dynamic"}}},"name":"Duck3","rotation":[0.0,-0.705976665019989,0.0,0.708235144615173],"translation":[-2.51722621917725,9.81210994720459,-10.5717573165894]},{"mesh":44,"name":"duckMesh4","scale":[0.0199999995529652,0.0199999995529652,0.0199999995529652]},{"extensions":{"OMI_physics_body":{"collider":{"physicsMaterial":2,"shape":3}}},"name":"CollisionShape3D43","scale":[0.0199999995529652,0.0199999995529652,0.0199999995529652]},{"children":[138,139],"extensions":{"OMI_physics_body":{"motion":{"type":"dynamic"}}},"name":"Duck4","rotation":[0.0,-0.705976665019989,0.0,0.708235144615173],"translation":[-10.2695207595825,9.81210994720459,-5.45142841339111]},{"mesh":45,"name":"duckMesh5","scale":[0.0199999995529652,0.0199999995529652,0.0199999995529652]},{"extensions":{"OMI_physics_body":{"collider":{"physicsMaterial":2,"shape":3}}},"name":"CollisionShape3D44","scale":[0.0199999995529652,0.0199999995529652,0.0199999995529652]},{"children":[141,142],"extensions":{"OMI_physics_body":{"motion":{"type":"dynamic"}}},"name":"Duck6","rotation":[0.0,-0.458005845546722,0.0,0.88894921541214],"translation":[-10.2695207595825,7.58314323425293,-0.0896949768066406]},{"mesh":46,"name":"duckMesh6","scale":[0.0199999995529652,0.0199999995529652,0.0199999995529652]},{"extensions":{"OMI_physics_body":{"collider":{"physicsMaterial":2,"shape":3}}},"name":"CollisionShape3D45","scale":[0.0199999995529652,0.0199999995529652,0.0199999995529652]},{"children":[144,145],"extensions":{"OMI_physics_body":{"motion":{"type":"dynamic"}}},"name":"Duck5","rotation":[0.0,-0.565406203269958,0.0,0.824812591075897],"translation":[12.1622352600098,12.5677900314331,-12.5201244354248]},{"mesh":47,"name":"duckMesh7","scale":[0.0199999995529652,0.0199999995529652,0.0199999995529652]},{"extensions":{"OMI_physics_body":{"collider":{"physicsMaterial":2,"shape":3}}},"name":"CollisionShape3D46","scale":[0.0199999995529652,0.0199999995529652,0.0199999995529652]}],"samplers":[{"magFilter":9729,"minFilter":9987,"wrapS":10497,"wrapT":10497},{"magFilter":9728,"minFilter":9986,"wrapS":10497,"wrapT":10497}],"scene":0,"scenes":[{"nodes":[0]}],"textures":[{"sampler":0,"source":0},{"sampler":1,"source":1}]}