{"accessors":[{"bufferView":0,"componentType":5126,"count":24,"max":[4.0,0.0500000007450581,4.0],"min":[-4.0,-0.0500000007450581,-4.0],"normalized":false,"type":"VEC3"},{"bufferView":1,"componentType":5126,"count":24,"max":[1.0,0.0000152590218931437,1.0,1.0],"min":[-1.0,-0.0000305181456496939,-1.0,1.0],"normalized":false,"type":"VEC4"},{"bufferView":2,"componentType":5126,"count":24,"max":[1.0,1.0,1.0],"min":[-1.0,-1.0,-1.0],"normalized":false,"type":"VEC3"},{"bufferView":3,"componentType":5126,"count":24,"max":[1.0,1.0],"min":[0.0,0.0],"normalized":false,"type":"VEC2"},{"bufferView":4,"componentType":5123,"count":36,"max":[23.0],"min":[0.0],"normalized":false,"type":"SCALAR"},{"bufferView":5,"componentType":5126,"count":24,"max":[0.0500000007450581,0.5,4.0],"min":[-0.0500000007450581,-0.5,-4.0],"normalized":false,"type":"VEC3"},{"bufferView":6,"componentType":5126,"count":24,"max":[1.0,0.0000152590218931437,1.0,1.0],"min":[-1.0,-0.0000305181456496939,-1.0,1.0],"normalized":false,"type":"VEC4"},{"bufferView":7,"componentType":5126,"count":24,"max":[1.0,1.0,1.0],"min":[-1.0,-1.0,-1.0],"normalized":false,"type":"VEC3"},{"bufferView":8,"componentType":5126,"count":24,"max":[1.0,1.0],"min":[0.0,0.0],"normalized":false,"type":"VEC2"},{"bufferView":9,"componentType":5123,"count":36,"max":[23.0],"min":[0.0],"normalized":false,"type":"SCALAR"},{"bufferView":10,"componentType":5126,"count":24,"max":[0.0500000007450581,0.5,4.0],"min":[-0.0500000007450581,-0.5,-4.0],"normalized":false,"type":"VEC3"},{"bufferView":11,"componentType":5126,"count":24,"max":[1.0,0.0000152590218931437,1.0,1.0],"min":[-1.0,-0.0000305181456496939,-1.0,1.0],"normalized":false,"type":"VEC4"},{"bufferView":12,"componentType":5126,"count":24,"max":[1.0,1.0,1.0],"min":[-1.0,-1.0,-1.0],"normalized":false,"type":"VEC3"},{"bufferView":13,"componentType":5126,"count":24,"max":[1.0,1.0],"min":[0.0,0.0],"normalized":false,"type":"VEC2"},{"bufferView":14,"componentType":5123,"count":36,"max":[23.0],"min":[0.0],"normalized":false,"type":"SCALAR"},{"bufferView":15,"componentType":5126,"count":24,"max":[4.0,0.5,0.0500000007450581],"min":[-4.0,-0.5,-0.0500000007450581],"normalized":false,"type":"VEC3"},{"bufferView":16,"componentType":5126,"count":24,"max":[1.0,0.0000152590218931437,1.0,1.0],"min":[-1.0,-0.0000305181456496939,-1.0,1.0],"normalized":false,"type":"VEC4"},{"bufferView":17,"componentType":5126,"count":24,"max":[1.0,1.0,1.0],"min":[-1.0,-1.0,-1.0],"normalized":false,"type":"VEC3"},{"bufferView":18,"componentType":5126,"count":24,"max":[1.0,1.0],"min":[0.0,0.0],"normalized":false,"type":"VEC2"},{"bufferView":19,"componentType":5123,"count":36,"max":[23.0],"min":[0.0],"normalized":false,"type":"SCALAR"},{"bufferView":20,"componentType":5126,"count":24,"max":[4.0,0.5,0.0500000007450581],"min":[-4.0,-0.5,-0.0500000007450581],"normalized":false,"type":"VEC3"},{"bufferView":21,"componentType":5126,"count":24,"max":[1.0,0.0000152590218931437,1.0,1.0],"min":[-1.0,-0.0000305181456496939,-1.0,1.0],"normalized":false,"type":"VEC4"},{"bufferView":22,"componentType":5126,"count":24,"max":[1.0,1.0,1.0],"min":[-1.0,-1.0,-1.0],"normalized":false,"type":"VEC3"},{"bufferView":23,"componentType":5126,"count":24,"max":[1.0,1.0],"min":[0.0,0.0],"normalized":false,"type":"VEC2"},{"bufferView":24,"componentType":5123,"count":36,"max":[23.0],"min":[0.0],"normalized":false,"type":"SCALAR"},{"bufferView":25,"componentType":5126,"count":2210,"max":[0.499433994293213,0.5,0.499433994293213],"min":[-0.499433994293213,-0.5,-0.499433994293213],"normalized":false,"type":"VEC3"},{"bufferView":26,"componentType":5126,"count":2210,"max":[1.0,0.0,1.0,1.0],"min":[-1.0,-0.000107904168544337,-1.0,1.0],"normalized":false,"type":"VEC4"},{"bufferView":27,"componentType":5126,"count":2210,"max":[0.99886953830719,1.0,0.99886953830719],"min":[-0.998870193958282,-1.0,-0.998867213726044],"normalized":false,"type":"VEC3"},{"bufferView":28,"componentType":5126,"count":2210,"max":[1.0,1.0],"min":[0.0,0.0],"normalized":false,"type":"VEC2"},{"bufferView":29,"componentType":5123,"count":12672,"max":[2209.0],"min":[0.0],"normalized":false,"type":"SCALAR"},{"bufferView":30,"componentType":5126,"count":2210,"max":[0.499433994293213,0.5,0.499433994293213],"min":[-0.499433994293213,-0.5,-0.499433994293213],"normalized":false,"type":"VEC3"},{"bufferView":31,"componentType":5126,"count":2210,"max":[1.0,0.0,1.0,1.0],"min":[-1.0,-0.000107904168544337,-1.0,1.0],"normalized":false,"type":"VEC4"},{"bufferView":32,"componentType":5126,"count":2210,"max":[0.99886953830719,1.0,0.99886953830719],"min":[-0.998870193958282,-1.0,-0.998867213726044],"normalized":false,"type":"VEC3"},{"bufferView":33,"componentType":5126,"count":2210,"max":[1.0,1.0],"min":[0.0,0.0],"normalized":false,"type":"VEC2"},{"bufferView":34,"componentType":5123,"count":12672,"max":[2209.0],"min":[0.0],"normalized":false,"type":"SCALAR"},{"bufferView":35,"componentType":5126,"count":2210,"max":[0.499433994293213,0.5,0.499433994293213],"min":[-0.499433994293213,-0.5,-0.499433994293213],"normalized":false,"type":"VEC3"},{"bufferView":36,"componentType":5126,"count":2210,"max":[1.0,0.0,1.0,1.0],"min":[-1.0,-0.000107904168544337,-1.0,1.0],"normalized":false,"type":"VEC4"},{"bufferView":37,"componentType":5126,"count":2210,"max":[0.99886953830719,1.0,0.99886953830719],"min":[-0.998870193958282,-1.0,-0.998867213726044],"normalized":false,"type":"VEC3"},{"bufferView":38,"componentType":5126,"count":2210,"max":[1.0,1.0],"min":[0.0,0.0],"normalized":false,"type":"VEC2"},{"bufferView":39,"componentType":5123,"count":12672,"max":[2209.0],"min":[0.0],"normalized":false,"type":"SCALAR"},{"bufferView":40,"componentType":5126,"count":2210,"max":[0.499433994293213,0.5,0.499433994293213],"min":[-0.499433994293213,-0.5,-0.499433994293213],"normalized":false,"type":"VEC3"},{"bufferView":41,"componentType":5126,"count":2210,"max":[1.0,0.0,1.0,1.0],"min":[-1.0,-0.000107904168544337,-1.0,1.0],"normalized":false,"type":"VEC4"},{"bufferView":42,"componentType":5126,"count":2210,"max":[0.99886953830719,1.0,0.99886953830719],"min":[-0.998870193958282,-1.0,-0.998867213726044],"normalized":false,"type":"VEC3"},{"bufferView":43,"componentType":5126,"count":2210,"max":[1.0,1.0],"min":[0.0,0.0],"normalized":false,"type":"VEC2"},{"bufferView":44,"componentType":5123,"count":12672,"max":[2209.0],"min":[0.0],"normalized":false,"type":"SCALAR"},{"bufferView":45,"componentType":5126,"count":2210,"max":[0.499433994293213,0.5,0.499433994293213],"min":[-0.499433994293213,-0.5,-0.499433994293213],"normalized":false,"type":"VEC3"},{"bufferView":46,"componentType":5126,"count":2210,"max":[1.0,0.0,1.0,1.0],"min":[-1.0,-0.000107904168544337,-1.0,1.0],"normalized":false,"type":"VEC4"},{"bufferView":47,"componentType":5126,"count":2210,"max":[0.99886953830719,1.0,0.99886953830719],"min":[-0.998870193958282,-1.0,-0.998867213726044],"normalized":false,"type":"VEC3"},{"bufferView":48,"componentType":5126,"count":2210,"max":[1.0,1.0],"min":[0.0,0.0],"normalized":false,"type":"VEC2"},{"bufferView":49,"componentType":5123,"count":12672,"max":[2209.0],"min":[0.0],"normalized":false,"type":"SCALAR"}],"asset":{"generator":"Godot Engine v4.5.2.rc.custom_build@e8d76f7e52ab05842d1e3f70e065c0d8fc21da2b","version":"2.0"},"bufferViews":[{"buffer":0,"byteLength":288,"byteStride":12,"target":34962},{"buffer":0,"byteLength":384,"byteOffset":288,"byteStride":16,"target":34962},{"buffer":0,"byteLength":288,"byteOffset":672,"byteStride":12,"target":34962},{"buffer":0,"byteLength":192,"byteOffset":960,"byteStride":8,"target":34962},{"buffer":0,"byteLength":72,"byteOffset":1152,"target":34963},{"buffer":0,"byteLength":288,"byteOffset":1224,"byteStride":12,"target":34962},{"buffer":0,"byteLength":384,"byteOffset":1512,"byteStride":16,"target":34962},{"buffer":0,"byteLength":288,"byteOffset":1896,"byteStride":12,"target":34962},{"buffer":0,"byteLength":192,"byteOffset":2184,"byteStride":8,"target":34962},{"buffer":0,"byteLength":72,"byteOffset":2376,"target":34963},{"buffer":0,"byteLength":288,"byteOffset":2448,"byteStride":12,"target":34962},{"buffer":0,"byteLength":384,"byteOffset":2736,"byteStride":16,"target":34962},{"buffer":0,"byteLength":288,"byteOffset":3120,"byteStride":12,"target":34962},{"buffer":0,"byteLength":192,"byteOffset":3408,"byteStride":8,"target":34962},{"buffer":0,"byteLength":72,"byteOffset":3600,"target":34963},{"buffer":0,"byteLength":288,"byteOffset":3672,"byteStride":12,"target":34962},{"buffer":0,"byteLength":384,"byteOffset":3960,"byteStride":16,"target":34962},{"buffer":0,"byteLength":288,"byteOffset":4344,"byteStride":12,"target":34962},{"buffer":0,"byteLength":192,"byteOffset":4632,"byteStride":8,"target":34962},{"buffer":0,"byteLength":72,"byteOffset":4824,"target":34963},{"buffer":0,"byteLength":288,"byteOffset":4896,"byteStride":12,"target":34962},{"buffer":0,"byteLength":384,"byteOffset":5184,"byteStride":16,"target":34962},{"buffer":0,"byteLength":288,"byteOffset":5568,"byteStride":12,"target":34962},{"buffer":0,"byteLength":192,"byteOffset":5856,"byteStride":8,"target":34962},{"buffer":0,"byteLength":72,"byteOffset":6048,"target":34963},{"buffer":0,"byteLength":26520,"byteOffset":6120,"byteStride":12,"target":34962},{"buffer":0,"byteLength":35360,"byteOffset":32640,"byteStride":16,"target":34962},{"buffer":0,"byteLength":26520,"byteOffset":68000,"byteStride":12,"target":34962},{"buffer":0,"byteLength":17680,"byteOffset":94520,"byteStride":8,"target":34962},{"buffer":0,"byteLength":25344,"byteOffset":112200,"target":34963},{"buffer":0,"byteLength":26520,"byteOffset":137544,"byteStride":12,"target":34962},{"buffer":0,"byteLength":35360,"byteOffset":164064,"byteStride":16,"target":34962},{"buffer":0,"byteLength":26520,"byteOffset":199424,"byteStride":12,"target":34962},{"buffer":0,"byteLength":17680,"byteOffset":225944,"byteStride":8,"target":34962},{"buffer":0,"byteLength":25344,"byteOffset":243624,"target":34963},{"buffer":0,"byteLength":26520,"byteOffset":268968,"byteStride":12,"target":34962},{"buffer":0,"byteLength":35360,"byteOffset":295488,"byteStride":16,"target":34962},{"buffer":0,"byteLength":26520,"byteOffset":330848,"byteStride":12,"target":34962},{"buffer":0,"byteLength":17680,"byteOffset":357368,"byteStride":8,"target":34962},{"buffer":0,"byteLength":25344,"byteOffset":375048,"target":34963},{"buffer":0,"byteLength":26520,"byteOffset":400392,"byteStride":12,"target":34962},{"buffer":0,"byteLength":35360,"byteOffset":426912,"byteStride":16,"target":34962},{"buffer":0,"byteLength":26520,"byteOffset":462272,"byteStride":12,"target":34962},{"buffer":0,"byteLength":17680,"byteOffset":488792,"byteStride":8,"target":34962},{"buffer":0,"byteLength":25344,"byteOffset":506472,"target":34963},{"buffer":0,"byteLength":26520,"byteOffset":531816,"byteStride":12,"target":34962},{"buffer":0,"byteLength":35360,"byteOffset":558336,"byteStride":16,"target":34962},{"buffer":0,"byteLength":26520,"byteOffset":593696,"byteStride":12,"target":34962},{"buffer":0,"byteLength":17680,"byteOffset":620216,"byteStride":8,"target":34962},{"buffer":0,"byteLength":25344,"byteOffset":637896,"target":34963}],"buffers":[{"byteLength":663240,"uri":"ball_pit0.bin"}],"cameras":[{"perspective":{"yfov":1.30899691581726,"zfar":4000.0,"znear":0.0500000007450581},"type":"perspective"}],"extensions":{"KHR_lights_punctual":{"lights":[{"intensity":0.206000000238419,"type":"directional"}]},"OMI_physics_shape":{"shapes":[{"box":{"size":[8.0,0.100000001490116,8.0]},"type":"box"},{"box":{"size":[0.100000001490116,1.0,8.0]},"type":"box"},{"box":{"size":[8.0,1.0,0.100000001490116]},"type":"box"},{"sphere":{"radius":0.5},"type":"sphere"}]}},"extensionsUsed":["GODOT_single_root","KHR_lights_punctual","OMI_physics_body","OMI_physics_shape"],"images":[{"uri":"textures%2F_albedo.png"},{"uri":"textures%2F_albedo2.png"}],"materials":[{"extensions":{},"pbrMetallicRoughness":{"baseColorFactor":[1.0,1.0,1.0,1.0],"baseColorTexture":{"index":0},"metallicFactor":0.0,"roughnessFactor":1.0}},{"extensions":{},"pbrMetallicRoughness":{"baseColorFactor":[1.0,1.0,1.0,1.0],"baseColorTexture":{"index":1},"metallicFactor":0.0,"roughnessFactor":1.0}},{"extensions":{},"pbrMetallicRoughness":{"baseColorFactor":[1.0,1.0,1.0,1.0],"baseColorTexture":{"index":2},"metallicFactor":0.0,"roughnessFactor":1.0}},{"extensions":{},"pbrMetallicRoughness":{"baseColorFactor":[1.0,1.0,1.0,1.0],"baseColorTexture":{"index":3},"metallicFactor":0.0,"roughnessFactor":1.0}},{"extensions":{},"pbrMetallicRoughness":{"baseColorFactor":[0.6560018658638,0.875779569149017,0.204900905489922,1.0],"metallicFactor":0.0,"roughnessFactor":1.0}},{"extensions":{},"pbrMetallicRoughness":{"baseColorFactor":[0.770107984542847,0.195322960615158,0.278688490390778,1.0],"metallicFactor":0.0,"roughnessFactor":1.0}},{"extensions":{},"pbrMetallicRoughness":{"baseColorFactor":[0.0380973964929581,0.344321876764297,0.811975955963135,1.0],"metallicFactor":0.0,"roughnessFactor":1.0}},{"extensions":{},"pbrMetallicRoughness":{"baseColorFactor":[0.116580493748188,0.821531176567078,0.795589685440063,1.0],"metallicFactor":0.0,"roughnessFactor":1.0}}],"meshes":[{"extras":{"targetNames":[]},"primitives":[{"attributes":{"NORMAL":2,"POSITION":0,"TANGENT":1,"TEXCOORD_0":3},"indices":4,"material":0,"mode":4}]},{"extras":{"targetNames":[]},"primitives":[{"attributes":{"NORMAL":7,"POSITION":5,"TANGENT":6,"TEXCOORD_0":8},"indices":9,"material":1,"mode":4}]},{"extras":{"targetNames":[]},"primitives":[{"attributes":{"NORMAL":12,"POSITION":10,"TANGENT":11,"TEXCOORD_0":13},"indices":14,"material":2,"mode":4}]},{"extras":{"targetNames":[]},"primitives":[{"attributes":{"NORMAL":17,"POSITION":15,"TANGENT":16,"TEXCOORD_0":18},"indices":19,"material":3,"mode":4}]},{"extras":{"targetNames":[]},"primitives":[{"attributes":{"NORMAL":22,"POSITION":20,"TANGENT":21,"TEXCOORD_0":23},"indices":24,"material":3,"mode":4}]},{"extras":{"targetNames":[]},"primitives":[{"attributes":{"NORMAL":27,"POSITION":25,"TANGENT":26,"TEXCOORD_0":28},"indices":29,"material":4,"mode":4}]},{"extras":{"targetNames":[]},"primitives":[{"attributes":{"NORMAL":32,"POSITION":30,"TANGENT":31,"TEXCOORD_0":33},"indices":34,"material":5,"mode":4}]},{"extras":{"targetNames":[]},"primitives":[{"attributes":{"NORMAL":37,"POSITION":35,"TANGENT":36,"TEXCOORD_0":38},"indices":39,"material":6,"mode":4}]},{"extras":{"targetNames":[]},"primitives":[{"attributes":{"NORMAL":42,"POSITION":40,"TANGENT":41,"TEXCOORD_0":43},"indices":44,"material":7,"mode":4}]},{"extras":{"targetNames":[]},"primitives":[{"attributes":{"NORMAL":47,"POSITION":45,"TANGENT":46,"TEXCOORD_0":48},"indices":49,"material":4,"mode":4}]}],"nodes":[{"children":[1,2,3],"name":"ball_pit"},{"name":"WorldEnvironment"},{"extensions":{"KHR_lights_punctual":{"light":0}},"name":"DirectionalLight3D","rotation":[-0.129409551620483,0.836516261100769,0.482962936162949,0.224143892526627]},{"children":[4,15,18,21,24,27,30],"name":"BallPit"},{"children":[5,7,9,11,13],"extensions":{"OMI_physics_body":{"motion":{"type":"static"}}},"name":"Pit"},{"children":[6],"extensions":{"OMI_physics_body":{"collider":{"shape":0}}},"name":"Floor"},{"mesh":0,"name":"Mesh1"},{"children":[8],"extensions":{"OMI_physics_body":{"collider":{"shape":1}}},"name":"WallEast","translation":[4.0,0.5,0.0]},{"mesh":1,"name":"Mesh2"},{"children":[10],"extensions":{"OMI_physics_body":{"collider":{"shape":1}}},"name":"WallWest","translation":[-4.0,0.5,0.0]},{"mesh":2,"name":"Mesh3"},{"children":[12],"extensions":{"OMI_physics_body":{"collider":{"shape":2}}},"name":"WallNorth","translation":[0.0,0.5,-4.0]},{"mesh":3,"name":"Mesh4"},{"children":[14],"extensions":{"OMI_physics_body":{"collider":{"shape":2}}},"name":"WallSouth","translation":[0.0,0.5,3.96881103515625]},{"mesh":4,"name":"Mesh42"},{"children":[16],"extensions":{"OMI_physics_body":{"motion":{"type":"dynamic"}}},"name":"Ball1","translation":[0.0,1.0,0.0]},{"children":[17],"extensions":{"OMI_physics_body":{"collider":{"shape":3}}},"name":"SphereShape1"},{"mesh":5,"name":"BallMesh1"},{"children":[19],"extensions":{"OMI_physics_body":{"motion":{"type":"dynamic"}}},"name":"Ball2","translation":[0.5,2.0,0.5]},{"children":[20],"extensions":{"OMI_physics_body":{"collider":{"shape":3}}},"name":"SphereShape2"},{"mesh":6,"name":"BallMesh2"},{"children":[22],"extensions":{"OMI_physics_body":{"motion":{"type":"dynamic"}}},"name":"Ball3","translation":[-0.5,2.5,0.0]},{"children":[23],"extensions":{"OMI_physics_body":{"collider":{"shape":3}}},"name":"SphereShape3"},{"mesh":7,"name":"BallMesh3"},{"children":[25],"extensions":{"OMI_physics_body":{"motion":{"type":"dynamic"}}},"name":"Ball4","translation":[0.25,3.5,0.0]},{"children":[26],"extensions":{"OMI_physics_body":{"collider":{"shape":3}}},"name":"SphereShape4"},{"mesh":8,"name":"BallMesh4"},{"children":[28],"extensions":{"OMI_physics_body":{"motion":{"type":"dynamic"}}},"name":"Ball5","translation":[-0.5,4.0,-0.5]},{"children":[29],"extensions":{"OMI_physics_body":{"collider":{"shape":3}}},"name":"SphereShape5"},{"mesh":9,"name":"BallMesh5"},{"camera":0,"name":"Camera","rotation":[-0.258819192647934,0.0,0.0,0.965925753116608],"translation":[0.0,3.0,6.0]}],"samplers":[{"magFilter":9729,"minFilter":9987,"wrapS":10497,"wrapT":10497}],"scene":0,"scenes":[{"nodes":[0]}],"textures":[{"sampler":0,"source":0},{"sampler":0,"source":1},{"sampler":0,"source":1},{"sampler":0,"source":1}]}